{
    "asset" : {
        "generator" : "Khronos glTF Blender I/O v1.4.40",
        "version" : "2.0"
    },
    "scene" : 0,
    "scenes" : [
        {
            "name" : "Scene",
            "nodes" : [
                3,
                5,
                6,
                7,
                8
            ]
        }
    ],
    "nodes" : [
        {
            "mesh" : 0,
            "name" : "node-0",
            "scale" : [
                0.0013230688637122512,
                0.001323068980127573,
                0.001323068980127573
            ]
        },
        {
            "children" : [
                0
            ],
            "name" : "Node_3",
            "translation" : [
                0.5523498058319092,
                -87.75498962402344,
                -0.5523498058319092
            ]
        },
        {
            "children" : [
                1
            ],
            "name" : "Node_2",
            "translation" : [
                -0.5523498058319092,
                87.75498962402344,
                0.5523498058319092
            ]
        },
        {
            "children" : [
                2
            ],
            "name" : "Node_1"
        },
        {
            "name" : "headLightNode",
            "translation" : [
                -136.3792724609375,
                68.18963623046875,
                -68.18963623046875
            ]
        },
        {
            "children" : [
                4
            ],
            "name" : "Camera.001",
            "rotation" : [
                0.5078175067901611,
                -0.22016428411006927,
                0.13606910407543182,
                0.8216655254364014
            ],
            "translation" : [
                -197.48150634765625,
                307.24755859375,
                341.6442565917969
            ]
        },
        {
            "name" : "keyLightNode",
            "rotation" : [
                -0.14607977867126465,
                -0.26535338163375854,
                0.26535338163375854,
                0.9153337478637695
            ],
            "scale" : [
                0,
                137.74307250976562,
                0
            ],
            "translation" : [
                -137.74307250976562,
                373.7189636230469,
                -137.74307250976562
            ]
        },
        {
            "name" : "Light",
            "rotation" : [
                0.16907575726509094,
                0.7558803558349609,
                -0.27217137813568115,
                0.570947527885437
            ],
            "translation" : [
                4.076245307922363,
                5.903861999511719,
                -1.0054539442062378
            ]
        },
        {
            "name" : "Camera",
            "rotation" : [
                0.483536034822464,
                0.33687159419059753,
                -0.20870360732078552,
                0.7804827094078064
            ],
            "translation" : [
                7.358891487121582,
                4.958309173583984,
                6.925790786743164
            ]
        }
    ],
    "materials" : [
        {
            "doubleSided" : true,
            "name" : "Mat",
            "pbrMetallicRoughness" : {
                "baseColorFactor" : [
                    0.8470588326454163,
                    0.6784313917160034,
                    0.16470588743686676,
                    1
                ],
                "metallicFactor" : 0,
                "roughnessFactor" : 0.8582186102867126
            }
        }
    ],
    "meshes" : [
        {
            "name" : "buffer-0-mesh-0",
            "primitives" : [
                {
                    "attributes" : {
                        "POSITION" : 0,
                        "NORMAL" : 1,
                        "TEXCOORD_0" : 2
                    },
                    "indices" : 3,
                    "material" : 0
                }
            ]
        }
    ],
    "accessors" : [
        {
            "bufferView" : 0,
            "componentType" : 5126,
            "count" : 10200,
            "max" : [
                63.521141052246094,
                220.93992614746094,
                63.521141052246094
            ],
            "min" : [
                -63.521141052246094,
                0,
                -63.521141052246094
            ],
            "type" : "VEC3"
        },
        {
            "bufferView" : 1,
            "componentType" : 5126,
            "count" : 10200,
            "type" : "VEC3"
        },
        {
            "bufferView" : 2,
            "componentType" : 5126,
            "count" : 10200,
            "type" : "VEC2"
        },
        {
            "bufferView" : 3,
            "componentType" : 5123,
            "count" : 10200,
            "type" : "SCALAR"
        }
    ],
    "bufferViews" : [
        {
            "buffer" : 0,
            "byteLength" : 122400,
            "byteOffset" : 0
        },
        {
            "buffer" : 0,
            "byteLength" : 122400,
            "byteOffset" : 122400
        },
        {
            "buffer" : 0,
            "byteLength" : 81600,
            "byteOffset" : 244800
        },
        {
            "buffer" : 0,
            "byteLength" : 20400,
            "byteOffset" : 326400
        }
    ],
    "buffers" : [
        {
            "byteLength" : 346800,
            "uri" : "FbVase.bin"
        }
    ]
}
