<?xml version="1.0" encoding="UTF-8" standalone="no"?>
<svg
   xmlns:dc="http://purl.org/dc/elements/1.1/"
   xmlns:cc="http://creativecommons.org/ns#"
   xmlns:rdf="http://www.w3.org/1999/02/22-rdf-syntax-ns#"
   xmlns:svg="http://www.w3.org/2000/svg"
   xmlns="http://www.w3.org/2000/svg"
   xmlns:sodipodi="http://sodipodi.sourceforge.net/DTD/sodipodi-0.dtd"
   xmlns:inkscape="http://www.inkscape.org/namespaces/inkscape"
   version="1.1"
   id="svg24"
   width="266"
   height="190"
   viewBox="0 0 266 190"
   sodipodi:docname="vase3.svg"
   inkscape:version="1.0.1 (3bc2e813f5, 2020-09-07)">
  <metadata
     id="metadata30">
    <rdf:RDF>
      <cc:Work
         rdf:about="">
        <dc:format>image/svg+xml</dc:format>
        <dc:type
           rdf:resource="http://purl.org/dc/dcmitype/StillImage" />
        <dc:title></dc:title>
      </cc:Work>
    </rdf:RDF>
  </metadata>
  <defs
     id="defs28" />
  <sodipodi:namedview
     pagecolor="#ffffff"
     bordercolor="#666666"
     borderopacity="1"
     objecttolerance="10"
     gridtolerance="10"
     guidetolerance="10"
     inkscape:pageopacity="0"
     inkscape:pageshadow="2"
     inkscape:window-width="1366"
     inkscape:window-height="705"
     id="namedview26"
     showgrid="false"
     inkscape:zoom="2.0022287"
     inkscape:cx="106.17159"
     inkscape:cy="96.901687"
     inkscape:window-x="-8"
     inkscape:window-y="-8"
     inkscape:window-maximized="1"
     inkscape:current-layer="g32" />
  <g
     inkscape:groupmode="layer"
     inkscape:label="Image"
     id="g32">
    <g
       id="g224"
       transform="matrix(1,0,0,1.0798096,2.9966612,-8.6722359)">
      <path
         style="fill:#ebeaea;stroke-width:1.00193"
         d="m 125.78835,183.10181 c 2.01715,-0.19908 5.04733,-0.19497 6.73375,0.009 1.68641,0.20411 0.036,0.36698 -3.66755,0.36196 -3.70356,-0.005 -5.08335,-0.172 -3.0662,-0.37108 z m -16.78433,-0.85726 c 0.81015,-0.25839 1.77813,-0.22661 2.15106,0.0706 0.37292,0.29723 -0.28993,0.50864 -1.47301,0.4698 -1.30741,-0.0429 -1.57334,-0.25487 -0.67805,-0.54041 z m 36.42569,-0.009 c 1.09195,-0.22679 2.60705,-0.21188 3.36687,0.0332 0.75983,0.24503 -0.13359,0.43058 -1.98537,0.41235 -1.85178,-0.0182 -2.47346,-0.2187 -1.3815,-0.44549 z m 10.92098,-1.16899 c 3.83731,-0.97947 6.78787,-0.97947 3.92802,0 -1.23452,0.42281 -3.25464,0.75691 -4.48916,0.74245 -1.80441,-0.0211 -1.69436,-0.16674 0.56114,-0.74245 z m 8.74292,-1.57346 c 0.93642,-0.52564 1.59482,-3.61422 1.86349,-8.74156 0.32755,-6.25121 0.82974,-8.17017 2.37354,-9.06989 1.50454,-0.87682 1.91114,-2.28615 1.75541,-6.08435 -0.18125,-4.42073 0.0376,-4.94319 2.07046,-4.94319 1.9038,0 2.27314,-0.58134 2.27314,-3.57794 0,-2.9816 -0.3741,-3.57793 -2.24459,-3.57793 -2.19114,0 -2.24458,-0.59633 -2.24458,-25.04555 V 93.407209 h -4.48917 -4.48916 v -3.577935 c 0,-2.981612 0.37409,-3.577935 2.24458,-3.577935 1.87049,0 2.24458,-0.596323 2.24458,-3.577935 0,-2.981612 -0.37409,-3.577935 -2.24458,-3.577935 -2.066,0 -2.24458,-0.596323 -2.24458,-7.49536 v -7.495361 l -4.95862,-3.238444 c -2.72724,-1.781145 -5.50491,-3.238445 -6.17261,-3.238445 -0.76928,0 -1.21398,-2.621281 -1.21398,-7.15587 0,-5.76445 0.32734,-7.15587 1.68344,-7.15587 1.29363,0 1.68344,-1.146448 1.68344,-4.951131 0,-5.855445 2.35972,-9.360609 6.30167,-9.360609 2.37457,0 2.67666,-0.403803 2.67666,-3.577935 v -3.577935 l -4.76974,-0.134346 -4.76974,-0.134345 5.05031,-0.625793 c 4.84462,-0.600304 4.89033,-0.633573 1.12229,-0.816836 -3.19497,-0.155391 -3.50913,-0.32426 -1.68343,-0.904884 1.23452,-0.392612 4.76974,-0.985129 7.85604,-1.316704 3.0863,-0.331577 7.52208,-1.25954 9.85727,-2.062141 6.82229,-2.344805 7.62107,-0.774513 3.88373,7.634943 -1.69358,3.810743 -3.07923,8.744377 -3.07923,10.963632 0,3.976272 2.00436,8.843482 3.64744,8.857105 0.46295,0.0038 0.84172,0.488101 0.84172,1.076138 0,1.143502 5.51929,6.086711 6.79605,6.086711 0.88898,0 11.16062,8.057164 11.16062,8.754481 0,0.257805 1.26257,1.788056 2.80573,3.400558 1.54315,1.612502 2.80572,3.481951 2.80572,4.154332 0,0.672381 0.4659,1.604902 1.03533,2.07227 1.67952,1.378497 4.68998,11.843632 5.73968,19.952651 1.03254,7.976388 -0.56589,32.356179 -2.17657,33.197679 -0.49896,0.26068 -1.21364,2.2853 -1.58817,4.49915 -0.66773,3.94689 -1.23287,5.65364 -6.66413,20.12588 -3.83671,10.22333 -8.96844,18.85795 -9.98662,16.80342 -0.74059,-1.49438 -0.79662,-1.49643 -0.87042,-0.0318 -0.0434,0.86094 -0.64575,1.56535 -1.33859,1.56535 -0.91249,0 -0.92277,0.32359 -0.0373,1.17396 2.78338,2.673 -11.34459,12.49351 -19.53662,13.58011 -2.7642,0.36665 -3.87592,0.28175 -2.96993,-0.22682 z m 7.53031,-5.58241 c 0.38149,-0.49197 0.15878,-0.89449 -0.49491,-0.89449 -0.65369,0 -1.18853,0.40252 -1.18853,0.89449 0,0.49196 0.22271,0.89448 0.49491,0.89448 0.2722,0 0.80704,-0.40252 1.18853,-0.89448 z m 12.3452,-4.47242 c 0.38149,-0.49197 0.15879,-0.89449 -0.4949,-0.89449 -0.65369,0 -1.18853,0.40252 -1.18853,0.89449 0,0.49196 0.2227,0.89448 0.49491,0.89448 0.2722,0 0.80704,-0.40252 1.18852,-0.89448 z M 177.67423,22.742993 c 0,-0.491966 -0.50503,-0.894484 -1.12229,-0.894484 -0.61726,0 -1.12229,0.402518 -1.12229,0.894484 0,0.491966 0.50503,0.894483 1.12229,0.894483 0.61726,0 1.12229,-0.402517 1.12229,-0.894483 z M 55.433056,83.94059 c 0.05385,-1.042023 0.319787,-1.253977 0.678051,-0.540418 0.324198,0.645706 0.284326,1.417198 -0.0886,1.714428 -0.372928,0.297229 -0.638181,-0.231076 -0.58945,-1.17401 z M 72.178827,53.602682 c 1.449714,-1.229915 2.888361,-2.236209 3.196991,-2.236209 0.30863,0 -0.624985,1.006294 -2.0747,2.236209 -1.449714,1.229915 -2.88836,2.23621 -3.196991,2.23621 -0.30863,0 0.624985,-1.006295 2.0747,-2.23621 z M 104.72528,17.37609 c -0.92589,-0.476899 -3.70356,-0.904187 -6.172602,-0.949529 -4.592279,-0.08433 -15.002618,-2.36496 -11.569723,-2.534617 1.043777,-0.05159 2.258128,-0.558499 2.69856,-1.126478 0.496142,-0.639824 0.307863,-0.789885 -0.494912,-0.394453 -0.712632,0.351032 -1.295695,0.264631 -1.295695,-0.192 0,-1.149186 8.324456,-2.139849 8.791283,-1.046218 0.205755,0.482016 0.891076,0.876393 1.522938,0.876393 0.631862,0 0.878396,-0.561709 0.547854,-1.248241 -0.49284,-1.0236221 2.877197,-1.3637307 18.727747,-1.8900331 10.63079,-0.3529856 20.31654,-0.4417463 21.52388,-0.1972461 1.20733,0.2445002 -3.23394,0.4912384 -9.86949,0.5483071 -9.91806,0.0853 -12.06463,0.3424848 -12.06463,1.4454871 0,0.969024 -1.24699,1.341726 -4.48917,1.341726 -3.12481,0 -4.48916,0.385125 -4.48916,1.267185 0,0.696951 -0.37878,1.436017 -0.84172,1.642366 -0.46295,0.20635 -0.25981,0.267626 0.45142,0.136171 2.02009,-0.373369 2.74248,0.69282 1.36543,2.015259 -1.47681,1.418251 -2.09753,1.461985 -4.34201,0.305921 z m 71.33158,-4.948108 c -1.19818,-0.722304 -1.70321,-1.300476 -1.12229,-1.284831 0.58092,0.01565 2.03656,0.619423 3.23474,1.341726 1.19818,0.722303 1.70321,1.300476 1.12229,1.284831 -0.58092,-0.01564 -2.03656,-0.619423 -3.23474,-1.341726 z m -12.1307,-2.8001616 c 0.77157,-0.2481405 2.03415,-0.2481405 2.80573,0 0.77157,0.2481415 0.14028,0.4511656 -1.40287,0.4511656 -1.54315,0 -2.17444,-0.2030241 -1.40286,-0.4511656 z M 145.96949,8.6944696 c 1.38884,-0.2132028 3.66148,-0.2132028 5.05032,0 1.38883,0.2132028 0.25251,0.3876414 -2.52516,0.3876414 -2.77767,0 -3.91399,-0.1744386 -2.52516,-0.3876414 z"
         id="path238" />
      <path
         style="fill:#e4e3e3;stroke-width:1.00193"
         d="m 153.26439,180.05662 c -4.03472,-0.91826 -4.48033,-1.77633 -1.96401,-3.78188 1.09351,-0.87155 1.68344,-3.0881 1.68344,-6.32528 0,-3.64528 0.41666,-4.98355 1.55158,-4.98355 1.11745,0 1.73553,-1.81449 2.20902,-6.48501 0.88765,-8.75563 0.9196,-50.5109 0.0449,-58.588683 l -0.70229,-6.485008 -3.51559,-0.02844 c -3.16309,-0.02558 -3.31866,-0.147599 -1.55158,-1.216722 2.49156,-1.507473 2.68061,-7.901066 0.28052,-9.488639 -0.92589,-0.612443 -1.68344,-1.668023 -1.68344,-2.345734 0,-0.67771 -0.50503,-1.232201 -1.12229,-1.232201 -0.65889,0 -1.12229,-3.094185 -1.12229,-7.493587 0,-5.56974 -0.4322,-7.779467 -1.68344,-8.60712 -0.92589,-0.612444 -1.68344,-2.036998 -1.68344,-3.165678 0,-1.128679 -0.59771,-2.210938 -1.32824,-2.405021 -1.02279,-0.271727 -1.02279,-2.333843 0,-8.96712 0.73053,-4.737835 1.32824,-9.872171 1.32824,-11.409635 0,-1.603608 1.1962,-4.045338 2.80573,-5.727212 1.81026,-1.891616 2.80573,-4.09197 2.80573,-6.201704 0,-3.071067 -0.22177,-3.276318 -3.64745,-3.375714 -2.00609,-0.0582 -5.16254,-0.43223 -7.01432,-0.831161 -3.20481,-0.690419 -3.1508,-0.722623 1.12229,-0.669061 2.46905,0.03095 5.40453,-0.251521 6.5233,-0.62771 1.11878,-0.37619 5.15903,-0.254458 8.97833,0.270513 l 6.9442,0.954494 -5.98704,-0.266078 c -3.5722,-0.158758 -5.38289,0.03916 -4.48917,0.49068 0.82383,0.416218 3.39175,0.762923 5.70648,0.770457 4.15896,0.01353 4.20859,0.05589 4.20859,3.591632 0,3.174132 -0.30209,3.577935 -2.67666,3.577935 -3.94195,0 -6.30167,3.505164 -6.30167,9.360609 0,3.804683 -0.38981,4.951131 -1.68344,4.951131 -1.3561,0 -1.68344,1.39142 -1.68344,7.15587 0,4.534589 0.4447,7.15587 1.21398,7.15587 0.6677,0 3.44537,1.4573 6.17261,3.238445 l 4.95862,3.238444 v 7.495361 c 0,6.899037 0.17858,7.49536 2.24458,7.49536 1.87049,0 2.24458,0.596323 2.24458,3.577935 0,2.981612 -0.37409,3.577935 -2.24458,3.577935 -1.87049,0 -2.24458,0.596323 -2.24458,3.577935 v 3.577935 h 4.48916 4.48917 v 25.045537 c 0,24.44922 0.0534,25.04555 2.24458,25.04555 1.87049,0 2.24459,0.59633 2.24459,3.57793 0,2.9966 -0.36934,3.57794 -2.27314,3.57794 -2.03388,0 -2.25172,0.52219 -2.06971,4.96144 0.17219,4.19971 -0.17501,5.1727 -2.26138,6.33743 -1.66451,0.92921 -2.24523,1.92737 -1.78854,3.0742 0.37195,0.93403 0.32642,4.528 -0.10112,7.98659 -0.83381,6.74425 -0.34193,6.2961 -8.34043,7.59875 -0.92589,0.15079 -3.32479,-0.0994 -5.33088,-0.55596 z m 17.67609,-6.14587 c 0,-0.49197 0.53484,-0.89449 1.18853,-0.89449 0.65369,0 0.8764,0.40252 0.49491,0.89449 -0.38149,0.49196 -0.91633,0.89448 -1.18853,0.89448 -0.2722,0 -0.49491,-0.40252 -0.49491,-0.89448 z m 12.34521,-4.47242 c 0,-0.49197 0.53484,-0.89449 1.18853,-0.89449 0.65369,0 0.87639,0.40252 0.4949,0.89449 -0.38148,0.49196 -0.91632,0.89448 -1.18852,0.89448 -0.27221,0 -0.49491,-0.40252 -0.49491,-0.89448 z m 3.92802,-3.57794 c -0.38149,-0.49196 -0.15878,-0.89448 0.49491,-0.89448 0.65369,0 1.18852,0.40252 1.18852,0.89448 0,0.49197 -0.2227,0.89449 -0.4949,0.89449 -0.2722,0 -0.80704,-0.40252 -1.18853,-0.89449 z M 55.433056,99.146816 c 0.05385,-1.042028 0.319787,-1.253976 0.678051,-0.54042 0.324198,0.645701 0.284326,1.417194 -0.0886,1.714434 -0.372928,0.29722 -0.638181,-0.23108 -0.58945,-1.174014 z M 79.473722,47.788538 c 1.117225,-0.983932 2.283835,-1.788968 2.592465,-1.788968 0.30863,0 -0.352948,0.805036 -1.470174,1.788968 -1.117225,0.983932 -2.283835,1.788967 -2.592465,1.788967 -0.30863,0 0.352948,-0.805035 1.470174,-1.788967 z M 175.42965,22.742993 c 0,-0.491966 0.50503,-0.894484 1.12229,-0.894484 0.61726,0 1.12229,0.402518 1.12229,0.894484 0,0.491966 -0.50503,0.894483 -1.12229,0.894483 -0.61726,0 -1.12229,-0.402517 -1.12229,-0.894483 z m -76.315827,-5.366903 -3.92802,-0.658982 3.92802,-0.104054 c 2.160407,-0.05723 4.685567,0.286137 5.611457,0.763036 1.49639,0.770746 1.49639,0.855528 0,0.763036 -0.92589,-0.05723 -3.45105,-0.400596 -5.611457,-0.763036 z m 9.891837,-0.246739 c 1.42971,-1.373009 0.75024,-2.454087 -1.3038,-2.074441 -0.71123,0.131455 -0.91437,0.07018 -0.45142,-0.136171 0.46294,-0.206349 0.84172,-0.998414 0.84172,-1.760142 0,-1.099449 0.92544,-1.286028 4.48916,-0.90506 3.87696,0.414456 4.48917,0.247539 4.48917,-1.22395 0,-1.3442602 0.76978,-1.6850335 3.64745,-1.6146886 3.45583,0.084475 3.50005,0.1267841 0.84171,0.8053216 -1.54315,0.393888 -2.04818,0.783525 -1.12229,0.86586 1.12328,0.09989 0.8432,0.472676 -0.84172,1.120337 -1.38883,0.533848 -2.52515,1.311641 -2.52515,1.728428 0,0.416786 -0.78736,0.757794 -1.74968,0.757794 -0.96232,0 -1.41626,0.429958 -1.00877,0.955464 0.40751,0.525505 1.48957,0.72649 2.4046,0.446633 1.01815,-0.311394 1.4846,-0.07475 1.20212,0.609883 -0.25386,0.615292 -2.65828,1.245975 -5.34314,1.401517 -4.09267,0.2371 -4.66959,0.07924 -3.56996,-0.976785 z m 53.86835,0.530188 c 0.81015,-0.25839 1.77813,-0.226612 2.15106,0.07062 0.37293,0.29723 -0.28993,0.50864 -1.473,0.469801 -1.30742,-0.04292 -1.57335,-0.254875 -0.67806,-0.540418 z m 6.73375,-0.894483 c 0.81015,-0.258391 1.77812,-0.226612 2.15106,0.07062 0.37293,0.29723 -0.28993,0.50864 -1.47301,0.469801 -1.30741,-0.04292 -1.57334,-0.254875 -0.67805,-0.540418 z m 4.40031,-1.288928 c 0.7613,-0.611306 1.66688,-0.886139 2.01242,-0.610739 0.34554,0.2754 -0.27733,0.77556 -1.38416,1.111466 -1.59949,0.485423 -1.72839,0.382679 -0.62826,-0.500727 z m 4.78845,-0.783489 c -1.01151,-0.521001 -1.14993,-0.872557 -0.34681,-0.880787 0.73515,-0.0075 1.64876,0.388821 2.03025,0.880787 0.86113,1.110524 0.47262,1.110524 -1.68344,0 z M 85.646325,12.959263 c 0,-0.461391 0.975075,-0.780353 2.166833,-0.708802 1.191758,0.07155 1.919499,0.449052 1.617203,0.838893 -0.769091,0.991817 -3.784036,0.888167 -3.784036,-0.130091 z M 96.86924,11.114704 c 0,-0.491966 0.505032,-0.894484 1.122292,-0.894484 0.61726,0 1.122291,0.402518 1.122291,0.894484 0,0.491966 -0.505031,0.894484 -1.122291,0.894484 -0.61726,0 -1.122292,-0.402518 -1.122292,-0.894484 z m 44.68123,-2.4000021 c 0.81015,-0.2583901 1.77814,-0.2266124 2.15106,0.070617 0.37293,0.2972295 -0.28993,0.5086396 -1.473,0.4698001 -1.30742,-0.042921 -1.57334,-0.2548744 -0.67806,-0.5404171 z"
         id="path236" />
      <path
         style="fill:#e0dede;stroke-width:1.00193"
         d="m 146.81121,181.06662 c -0.38149,-0.49197 -1.92639,-0.89449 -3.43311,-0.89449 -1.50672,0 -2.73949,-0.45563 -2.73949,-1.01253 0,-1.4853 4.49939,-7.03782 5.70299,-7.03782 0.56889,0 1.03076,-4.80971 1.03076,-10.73381 0,-6.55954 0.43645,-10.7338 1.12229,-10.7338 0.61726,0 1.12229,-1.61007 1.12229,-3.57794 0,-1.96786 -0.50503,-3.57793 -1.12229,-3.57793 -0.61726,0 -1.12229,-1.61007 -1.12229,-3.57794 0,-2.28147 -0.51247,-3.57793 -1.41432,-3.57793 -1.10368,0 -1.37164,-4.71517 -1.21999,-21.46761 l 0.19432,-21.467611 h -2.70803 c -3.29503,0 -3.39793,-0.848668 -0.46344,-3.822013 1.23452,-1.250867 2.24458,-2.512703 2.24458,-2.80408 0,-0.291377 -1.01006,-0.529777 -2.24458,-0.529777 -1.23452,0 -2.24458,-0.549494 -2.24458,-1.221096 0,-0.671604 -1.04672,-2.281674 -2.32604,-3.577935 -1.92819,-1.953713 -2.02417,-2.356839 -0.56115,-2.356839 2.02336,0 2.20251,-0.768681 0.62542,-2.683451 -0.92886,-1.127746 -1.26449,-1.144595 -2.10454,-0.105648 -0.79169,0.979142 -1.38019,0.772926 -2.83118,-0.992067 -1.00747,-1.22548 -1.52818,-2.858676 -1.15714,-3.629325 0.43384,-0.901099 -0.35816,-1.940519 -2.21913,-2.912363 -3.16931,-1.655093 -3.87743,-3.988886 -1.2103,-3.988886 1.22783,0 1.68343,-1.011661 1.68343,-3.738049 0,-3.951721 2.07152,-9.714721 3.85805,-10.733167 0.58536,-0.333694 1.67402,-3.755094 2.41926,-7.603112 1.37279,-7.088483 3.58375,-12.793058 5.35723,-13.822362 0.53577,-0.310959 0.39693,-1.955206 -0.30908,-3.660209 -1.18428,-2.860019 -1.77083,-3.16925 -7.70651,-4.062967 -4.20235,-0.632733 -4.96889,-0.898458 -2.21608,-0.768202 2.31473,0.109526 4.20859,-0.122554 4.20859,-0.515733 0,-0.393178 2.65142,-0.651633 5.89203,-0.574343 l 5.89203,0.140526 -5.61145,0.577802 -5.61146,0.577803 7.01432,0.738934 7.01432,0.738934 v 3.154345 c 0,1.986494 -1.03878,4.239811 -2.80573,6.086167 -1.60953,1.681874 -2.80573,4.123604 -2.80573,5.727212 0,1.537464 -0.59771,6.6718 -1.32824,11.409635 -1.02279,6.633277 -1.02279,8.695393 0,8.96712 0.73053,0.194083 1.32824,1.276342 1.32824,2.405021 0,1.12868 0.75755,2.553234 1.68344,3.165678 1.25124,0.827653 1.68344,3.03738 1.68344,8.60712 0,4.399402 0.4634,7.493587 1.12229,7.493587 0.61726,0 1.12229,0.554491 1.12229,1.232201 0,0.677711 0.75755,1.733291 1.68344,2.345734 2.40009,1.587573 2.21104,7.981166 -0.28057,9.488639 -1.76709,1.069123 -1.61151,1.191122 1.55158,1.216722 l 3.51558,0.02844 0.70229,6.485008 c 0.87476,8.077787 0.84281,49.833057 -0.0449,58.588687 -0.4735,4.67052 -1.09158,6.48501 -2.20903,6.48501 -1.14818,0 -1.55158,1.39535 -1.55158,5.3669 0,2.9518 -0.451,5.3669 -1.00222,5.3669 -1.93528,0 -2.4909,3.00327 -0.70316,3.80067 0.96393,0.42994 1.45964,1.15948 1.10161,1.62121 -0.86339,1.11342 -4.69213,1.07563 -5.56883,-0.055 z m -5.05031,-62.61387 c 0,-1.96786 0.50503,-3.57793 1.12229,-3.57793 0.61726,0 1.12229,1.61007 1.12229,3.57793 0,1.96787 -0.50503,3.57794 -1.12229,3.57794 -0.61726,0 -1.12229,-1.61007 -1.12229,-3.57794 z M 55.563244,95.643419 c 0.02287,-1.475898 0.274398,-1.971389 0.558948,-1.101083 0.284549,0.870306 0.265836,2.077859 -0.04158,2.683451 -0.307426,0.605593 -0.54024,-0.10647 -0.517368,-1.582368 z m 55.334636,-76.376371 -6.73374,-0.454227 6.64638,-0.494745 c 3.83953,-0.285808 6.84136,-0.96719 7.10809,-1.613457 0.28258,-0.684653 -0.18378,-0.921287 -1.20197,-0.609883 -0.91503,0.279857 -1.99709,0.07888 -2.4046,-0.446633 -0.40749,-0.525506 0.0465,-0.955464 1.00877,-0.955464 2.0933,0 2.32357,-1.42981 0.34681,-2.153413 -0.77157,-0.282438 -0.3928,-0.32517 0.84172,-0.09496 1.23452,0.230211 3.00213,0.0314 3.92802,-0.441802 1.49639,-0.764771 1.49639,-0.871796 0,-0.963226 -4.26221,-0.260425 4.67467,-1.5333403 10.66177,-1.5185983 l 6.73375,0.016584 -5.61146,0.9147623 c -5.47697,0.89284 -7.7099,2.087316 -6.59346,3.527084 0.30433,0.392461 -0.26383,0.713568 -1.26258,0.713568 -0.99875,0 -1.53648,0.36034 -1.19497,0.800755 0.34151,0.440416 -0.13371,1.031559 -1.05605,1.313652 -2.68694,0.82178 -1.9392,2.207526 1.4093,2.611818 4.30245,0.519468 -4.18766,0.41738 -12.62578,-0.151815 z m 42.9978,-0.713025 c 0.81015,-0.25839 1.77812,-0.226612 2.15106,0.07062 0.37293,0.297229 -0.28993,0.50864 -1.47301,0.4698 -1.30741,-0.04292 -1.57334,-0.254875 -0.67805,-0.540417 z m -53.86999,-0.894484 c 0.81015,-0.25839 1.77813,-0.226612 2.15105,0.07062 0.37293,0.29723 -0.28992,0.50864 -1.473,0.469801 -1.307409,-0.04292 -1.573344,-0.254875 -0.67805,-0.540418 z M 89.925062,15.870572 c 0.810154,-0.25839 1.77813,-0.226612 2.151059,0.07062 0.372927,0.29723 -0.289926,0.508641 -1.473008,0.469801 -1.307406,-0.04292 -1.57334,-0.254875 -0.678051,-0.540417 z m 81.015418,0.259492 c 0,-0.193348 0.78378,-0.591255 1.74173,-0.884238 0.99875,-0.305463 1.44924,-0.155505 1.05605,0.351542 -0.65907,0.849942 -2.79778,1.25715 -2.79778,0.532696 z m 4.86326,-2.739803 c 0,-0.716309 0.42086,-1.095071 0.93525,-0.841694 0.51438,0.253376 0.93524,0.839446 0.93524,1.302378 0,0.462932 -0.42086,0.841694 -0.93524,0.841694 -0.51439,0 -0.93525,-0.58607 -0.93525,-1.302378 z"
         id="path234" />
      <path
         style="fill:#d7d7d8;stroke-width:1.00193"
         d="m 135.5883,181.9611 c -0.38149,-0.49196 -1.77488,-0.89448 -3.09643,-0.89448 -1.86885,0 -2.10352,-0.23853 -1.05605,-1.07338 2.09166,-1.66709 1.77315,-42.04227 -0.36906,-46.7815 -0.88949,-1.96787 -1.62487,-5.28864 -1.63416,-7.37949 -0.009,-2.09086 -0.52194,-3.80156 -1.1392,-3.80156 -1.40908,0 -1.49398,-6.89945 -0.0899,-7.30495 0.56781,-0.16399 1.19568,-4.25991 1.39523,-9.10206 0.35638,-8.647319 0.30808,-8.841422 -2.71583,-10.914514 -2.25474,-1.545775 -3.07867,-2.940016 -3.07867,-5.209689 0,-1.704481 0.63129,-3.27924 1.40286,-3.499464 1.28688,-0.3673 -0.003,-1.436852 -6.94686,-5.757992 -1.56407,-0.973384 -1.54133,-1.092692 0.21311,-1.118105 2.76588,-0.04006 2.44392,-1.353612 -1.00572,-4.103014 -2.35272,-1.875163 -2.64978,-2.524511 -1.42982,-3.125447 1.1803,-0.581394 0.49787,-1.491647 -2.9223,-3.897893 l -4.46221,-3.139364 3.0863,-0.03723 c 2.84471,-0.03432 3.0863,-0.317317 3.0863,-3.61517 0,-1.967864 0.50504,-3.577935 1.1223,-3.577935 0.61726,0 1.12229,-0.603776 1.12229,-1.341726 0,-0.737949 0.50386,-1.341725 1.11969,-1.341725 1.89564,0 8.76768,-5.674853 9.99046,-8.250011 0.63614,-1.339726 1.40276,-6.111558 1.70359,-10.604071 0.42807,-6.392887 0.97221,-8.416043 2.50356,-9.308503 1.76244,-1.027137 1.46146,-1.34307 -3.0329,-3.183546 -2.74423,-1.123787 -6.5046,-2.312446 -8.35638,-2.641466 -2.69882,-0.47952 -1.73921,-0.735699 4.83621,-1.291089 4.51169,-0.381078 8.50985,-0.448365 8.8848,-0.149525 0.37496,0.298839 -1.14025,0.543344 -3.36711,0.543344 -2.22685,0 -4.41399,0.470921 -4.86032,1.046492 -0.5479,0.706577 -0.1963,0.858342 1.08247,0.467238 1.04167,-0.318589 4.13741,-0.334169 6.87943,-0.03463 4.47007,0.488325 5.11901,0.867133 6.27723,3.66422 0.71106,1.71719 0.85447,3.373395 0.31901,3.684172 -1.77348,1.029304 -3.98444,6.733879 -5.35723,13.822363 -0.74524,3.848017 -1.8339,7.269417 -2.41926,7.603112 -1.78653,1.018447 -3.85805,6.781447 -3.85805,10.733168 0,2.726388 -0.4556,3.738049 -1.68343,3.738049 -2.66713,0 -1.95901,2.333793 1.2103,3.988886 1.86097,0.971844 2.65297,2.011264 2.21913,2.912363 -0.37104,0.770649 0.14967,2.403845 1.15714,3.629325 1.45099,1.764993 2.03949,1.971209 2.83118,0.992067 0.84005,-1.038947 1.17568,-1.022098 2.10454,0.105648 1.57709,1.91477 1.39794,2.683451 -0.62542,2.683451 -1.46302,0 -1.36704,0.403126 0.56115,2.356839 1.27932,1.296261 2.32604,2.906331 2.32604,3.577935 0,0.671602 1.01006,1.221096 2.24458,1.221096 1.23452,0 2.24458,0.2384 2.24458,0.529777 0,0.291377 -1.01006,1.553213 -2.24458,2.80408 -2.93449,2.973345 -2.83159,3.822013 0.46344,3.822013 h 2.70803 l -0.19432,21.467611 c -0.15165,16.75244 0.11631,21.46761 1.21999,21.46761 0.90185,0 1.41432,1.29646 1.41432,3.57793 0,1.96787 0.50503,3.57794 1.12229,3.57794 0.61726,0 1.12229,1.61007 1.12229,3.57793 0,1.96787 -0.50503,3.57794 -1.12229,3.57794 -0.68584,0 -1.12229,4.17426 -1.12229,10.7338 0,5.9241 -0.46187,10.73381 -1.03076,10.73381 -1.17201,0 -5.70299,5.53503 -5.70299,6.96676 0,0.5178 1.64135,1.23167 3.64745,1.58637 3.18743,0.56357 3.36436,0.73383 1.40286,1.34992 -3.24351,1.01878 -9.2908,0.98062 -10.10062,-0.0637 z m 8.41718,-63.50835 c 0,-1.96786 -0.50503,-3.57793 -1.12229,-3.57793 -0.61726,0 -1.12229,1.61007 -1.12229,3.57793 0,1.96787 0.50503,3.57794 1.12229,3.57794 0.61726,0 1.12229,-1.61007 1.12229,-3.57794 z m -43.97979,62.00284 c 0.81015,-0.25839 1.77813,-0.22662 2.15105,0.0706 0.37293,0.29723 -0.28992,0.50864 -1.473,0.4698 -1.307409,-0.0429 -1.573344,-0.25487 -0.67805,-0.54041 z M 77.878886,154.60481 c 0.05385,-1.04203 0.319787,-1.25398 0.678052,-0.54042 0.324197,0.6457 0.284325,1.41719 -0.08861,1.71443 -0.372929,0.29723 -0.638181,-0.23108 -0.58945,-1.17401 z m -9.368591,-14.75615 c 0.396852,-1.20952 0.905579,-1.61499 1.185757,-0.94506 0.26989,0.64531 -0.04288,1.59858 -0.69505,2.11837 -0.832816,0.66377 -0.978875,0.31453 -0.490707,-1.17331 z m -1.765721,-7.08417 c 0,-1.22991 0.254729,-1.73306 0.566068,-1.1181 0.311337,0.61496 0.311337,1.62125 0,2.23621 -0.311339,0.61496 -0.566068,0.11181 -0.566068,-1.11811 z m -4.577769,-4.99419 c 0.05385,-1.04203 0.319787,-1.25398 0.678051,-0.54042 0.324198,0.6457 0.284326,1.41719 -0.08861,1.71443 -0.372928,0.29722 -0.638181,-0.23108 -0.58945,-1.17401 z M 58.7457,116.21655 c 0,-0.49197 0.489564,-1.49827 1.08792,-2.23621 0.598357,-0.73795 1.08792,-0.93921 1.08792,-0.44725 0,0.49197 -0.489563,1.49826 -1.08792,2.23621 -0.598356,0.73795 -1.08792,0.93921 -1.08792,0.44725 z m -1.21584,-9.96338 c -0.619253,-1.29815 -0.871156,-2.56331 -0.559786,-2.81148 0.507539,-0.40451 1.059742,0.53805 2.374843,4.05364 0.796074,2.1281 -0.693698,1.10856 -1.815057,-1.24216 z M 55.650126,89.829274 c 0,-2.213847 0.218865,-3.119512 0.486366,-2.012588 0.267502,1.106923 0.267502,2.918253 0,4.025177 -0.267501,1.106923 -0.486366,0.201259 -0.486366,-2.012589 z m 5.394387,-4.9942 c 0.05385,-1.042023 0.319787,-1.253977 0.678052,-0.540418 0.324197,0.645706 0.284326,1.417198 -0.08861,1.714428 -0.372929,0.297228 -0.638181,-0.231076 -0.58945,-1.17401 z m -4.489166,-2.683452 c 0.05385,-1.042022 0.319787,-1.253976 0.678052,-0.540417 0.324197,0.645705 0.284326,1.417197 -0.08861,1.714427 -0.372929,0.297229 -0.638181,-0.231075 -0.58945,-1.17401 z m 2.976616,-9.38924 c 0.396852,-1.209525 0.905579,-1.614988 1.185757,-0.945068 0.26989,0.645318 -0.04288,1.598584 -0.69505,2.11837 -0.832816,0.663768 -0.978875,0.314533 -0.490707,-1.173302 z M 86.945821,37.949216 c 0,-1.229915 0.25473,-1.733062 0.566068,-1.118104 0.311337,0.614957 0.311337,1.621252 0,2.236209 -0.311338,0.614958 -0.566068,0.111811 -0.566068,-1.118105 z m 0,-5.366902 c 0,-1.229915 0.25473,-1.733062 0.566068,-1.118105 0.311337,0.614958 0.311337,1.621252 0,2.23621 -0.311338,0.614957 -0.566068,0.11181 -0.566068,-1.118105 z m 23.952059,-12.522773 -5.61145,-0.61343 5.89203,-0.140526 c 3.29737,-0.07864 5.89203,0.253375 5.89203,0.753956 0,0.491966 -0.12626,0.831247 -0.28058,0.753957 -0.15431,-0.07729 -2.80572,-0.41657 -5.89203,-0.753957 z M 96.86924,18.270574 c -2.198562,-0.561181 -2.319995,-0.712552 -0.561145,-0.699491 1.23452,0.0092 3.759675,0.323938 5.611455,0.699491 3.02426,0.613337 3.08136,0.684519 0.56115,0.699491 -1.54315,0.0092 -4.068309,-0.305603 -5.61146,-0.699491 z m 23.56812,-0.02808 c 0,-0.507406 0.75465,-1.153361 1.677,-1.435454 0.92234,-0.282093 1.39756,-0.873236 1.05605,-1.313652 -0.34151,-0.440411 0.19622,-0.800751 1.19497,-0.800751 0.99875,0 1.56691,-0.321107 1.26258,-0.713571 -1.152,-1.485613 1.19906,-2.598772 7.62236,-3.608984 8.13129,-1.278831 10.75516,-1.3153925 10.75516,-0.149864 0,0.491966 -1.65536,0.894484 -3.6786,0.894484 -3.89225,0 -8.65617,3.059624 -6.07061,3.898841 0.73262,0.237788 -0.18784,0.464121 -2.04545,0.502961 -2.09302,0.04376 -3.91058,0.750968 -4.77926,1.859584 -1.44544,1.844709 -6.9942,2.532064 -6.9942,0.86641 z m 30.09144,0.311523 c 0.81015,-0.258391 1.77813,-0.226612 2.15107,0.07062 0.37292,0.29723 -0.28994,0.50864 -1.47301,0.469801 -1.30742,-0.04292 -1.57334,-0.254875 -0.67806,-0.540418 z m 19.28939,-2.966896 c 0.92589,-0.4769 2.18847,-0.86709 2.80573,-0.86709 0.61726,0 0.36474,0.39019 -0.56115,0.86709 -0.92589,0.476899 -2.18847,0.867089 -2.80573,0.867089 -0.61726,0 -0.36474,-0.39019 0.56115,-0.867089 z m 4.94314,-1.650763 c 0.50627,-0.65288 -0.0491,-1.032689 -1.51003,-1.032689 -1.27095,0 -2.31082,-0.364834 -2.31082,-0.810742 0,-0.938147 4.24931,-0.222225 5.08611,0.856905 0.30908,0.398589 -0.0294,1.015971 -0.75204,1.371961 -0.82065,0.404238 -1.01334,0.259524 -0.51322,-0.385435 z M 159.50714,9.6091856 c 0.81014,-0.2583904 1.77812,-0.226612 2.15106,0.070619 0.37292,0.2972298 -0.28993,0.5086404 -1.47301,0.4698014 -1.30741,-0.04292 -1.57334,-0.2548757 -0.67805,-0.5404182 z"
         id="path232" />
      <path
         style="fill:#ccccd0;stroke-width:1.00193"
         d="m 126.65665,181.90089 c 0.40717,-0.52508 -0.29407,-1.17028 -1.55831,-1.43377 -1.76585,-0.36805 -2.37731,-1.33061 -2.63808,-4.15295 -0.27702,-2.998 -0.81906,-3.76323 -2.9465,-4.15969 -2.4769,-0.46158 -2.38019,-0.61963 1.93748,-3.16634 5.23114,-3.08549 5.5782,-3.78634 2.07242,-4.18485 l -2.52515,-0.28703 2.52515,-1.76294 c 2.39813,-1.67424 2.52516,-2.40725 2.52516,-14.57037 0,-11.36115 -0.25138,-13.08113 -2.22612,-15.23105 -1.82328,-1.98503 -2.36197,-4.48741 -2.97677,-13.82828 -0.57078,-8.67195 -1.11304,-11.40467 -2.26304,-11.40467 -1.01627,0 -1.5124,-1.17371 -1.5124,-3.57794 0,-2.98161 0.37409,-3.57793 2.24458,-3.57793 2.88105,0 2.88105,-1.457007 0,-2.891035 -1.23452,-0.614474 -2.24458,-1.825444 -2.24458,-2.691036 0,-0.865592 -0.81563,-1.5738 -1.81251,-1.5738 -1.66849,0 -1.66849,-0.175193 0,-2.204741 2.36947,-2.882215 2.25549,-4.896154 -0.43208,-7.63458 -1.20706,-1.229915 -2.20589,-3.127712 -2.21962,-4.217326 -0.03,-2.378061 -4.14191,-4.579473 -4.7132,-2.523301 -0.26361,0.948787 -1.65908,0.441256 -5.13181,-1.866443 -4.122832,-2.739705 -4.769738,-3.64479 -4.769738,-6.673338 v -3.503751 h -6.172604 -6.172603 v 3.577935 3.577935 h -6.733749 -6.733749 v 3.577935 c 0,2.981612 -0.374097,3.577935 -2.244583,3.577935 -2.169927,0 -2.244583,0.596323 -2.244583,17.92889 0,16.578931 0.14788,17.909091 1.96401,17.666051 1.572707,-0.21047 2.032767,0.49457 2.309113,3.53872 0.278993,3.07333 0.762714,3.80156 2.525155,3.80156 1.795202,0 2.180054,0.63162 2.180054,3.57793 0,2.58407 0.467622,3.57794 1.683437,3.57794 1.350099,0 1.68684,1.37266 1.700623,6.93225 0.01897,7.65196 0.03212,7.67878 5.53263,11.28452 3.470653,2.2751 3.835295,2.93737 3.562682,6.47061 -0.28514,3.69562 -0.127097,3.9361 2.586798,3.9361 2.624049,0 2.890494,0.32981 2.890494,3.57793 0,2.46964 0.486456,3.57794 1.57043,3.57794 1.056026,0 1.703414,1.33266 1.976421,4.06851 0.387431,3.8825 0.285685,4.04443 -2.225612,3.54208 -1.675153,-0.3351 -2.369405,-0.1883 -1.910186,0.40391 0.396778,0.51168 1.701672,0.93034 2.899765,0.93034 2.709115,0 2.918834,1.77824 0.214338,1.81741 -1.828467,0.0265 -1.834049,0.1072 -0.08086,1.16959 1.290855,0.78223 1.561001,1.54696 0.858903,2.43139 -0.816699,1.02879 -1.027728,1.04428 -1.041431,0.0765 -0.01021,-0.72266 -0.715542,-1.00021 -1.743106,-0.68594 -0.98208,0.30037 -2.001206,-0.0439 -2.364656,-0.79878 -0.351304,-0.72966 -1.468508,-1.33281 -2.482673,-1.34034 -1.600561,-0.0119 -1.621745,-0.12819 -0.160498,-0.88084 1.298972,-0.66906 1.335627,-0.87021 0.1605,-0.88078 -0.884443,-0.008 -1.254268,-0.57172 -0.882107,-1.34469 0.354857,-0.73704 0.07377,-1.236 -0.629896,-1.11811 -0.698898,0.11709 -1.92656,-0.7934 -2.728138,-2.02332 -0.801577,-1.22991 -2.105443,-2.23621 -2.897479,-2.23621 -0.792037,0 -1.963492,-1.72958 -2.603233,-3.84351 -0.639742,-2.11394 -1.523546,-3.55629 -1.96401,-3.20524 -0.72704,0.57946 -1.264413,-0.89782 -0.933746,-2.56695 0.07309,-0.36897 -0.313226,-0.67086 -0.858495,-0.67086 -0.545268,0 -1.255716,-0.80559 -1.578774,-1.7902 -0.323057,-0.98461 -0.129444,-1.56463 0.430252,-1.28894 0.559695,0.2757 1.017628,0.0624 1.017628,-0.47408 0,-0.53644 -0.776362,-1.21279 -1.725249,-1.503 -1.989657,-0.60853 -5.0085,-5.87568 -5.0085,-8.73862 0,-1.07144 -0.631289,-2.45494 -1.402865,-3.07445 -1.125272,-0.90349 -0.983933,-0.99919 0.714283,-0.48361 1.545698,0.46929 1.968655,0.30252 1.567006,-0.61786 -0.302576,-0.69335 -1.381551,-1.14236 -2.39772,-0.99781 -2.193631,0.31206 -2.402285,-0.80138 -0.444714,-2.37314 1.124093,-0.90254 1.05261,-1.0202 -0.359718,-0.59204 -1.290223,0.39113 -2.089177,-0.31381 -2.981254,-2.63046 -0.908199,-2.35851 -0.888035,-3.16828 0.07914,-3.17848 0.856214,-0.009 0.80134,-0.2647 -0.161269,-0.75135 -0.802497,-0.40571 -1.48742,-1.70772 -1.522051,-2.89338 -0.125472,-4.29568 -1.130271,-7.09062 -2.335657,-6.49687 -0.821351,0.40458 -0.98617,-0.48619 -0.516644,-2.79223 0.447202,-2.19641 0.114386,-4.27272 -0.947134,-5.9088 -1.919786,-2.95888 -2.064988,-3.82236 -0.514322,-3.05853 0.631643,0.31114 1.122291,-0.40605 1.122291,-1.64047 0,-1.20632 -0.673915,-2.39942 -1.497587,-2.65133 -1.710975,-0.52329 -2.369651,-6.889246 -0.712821,-6.889246 0.598464,0 1.088117,-0.805035 1.088117,-1.788967 0,-0.983932 -0.533998,-1.788968 -1.186661,-1.788968 -0.728843,0 -1.058192,-1.867333 -0.853672,-4.840133 0.183143,-2.662073 0.717141,-4.650906 1.186661,-4.419629 0.469519,0.231277 0.853672,-0.853869 0.853672,-2.411437 0,-2.149789 0.405503,-2.70792 1.683437,-2.317072 1.872271,0.572622 1.981444,0.07463 0.561146,-2.559678 -0.824778,-1.52976 -0.97596,-1.562161 -1.043412,-0.223621 -0.04338,0.860941 -0.53663,1.565346 -1.096102,1.565346 -1.446008,0 -0.236885,-3.11794 1.963978,-5.064475 1.022435,-0.904284 1.956041,-3.023944 2.07468,-4.710356 0.120756,-1.716498 0.99568,-3.414096 1.987615,-3.856531 0.974549,-0.434681 1.430738,-1.230299 1.013754,-1.768042 -0.434,-0.559685 -0.243216,-0.724064 0.446218,-0.384461 0.712879,0.351152 1.507907,-0.508211 1.948164,-2.10581 0.409085,-1.484484 1.207727,-2.470535 1.77476,-2.191225 0.567032,0.27931 1.030968,0.137382 1.030968,-0.315396 0,-0.452779 1.227664,-0.636188 2.728143,-0.407576 1.770028,0.269679 3.618,-0.245092 5.261932,-1.465766 3.164288,-2.349587 3.819012,-2.346646 5.904589,0.02653 1.037464,1.18053 2.465869,1.743478 3.746553,1.476553 1.764264,-0.367716 2.005037,0.01086 1.630993,2.564465 -0.434873,2.968887 -0.397293,2.995866 4.173127,2.995866 2.536573,0 4.611951,0.402517 4.611951,0.894483 0,0.491966 1.01007,0.894484 2.24459,0.894484 1.94679,0 2.24458,-0.596323 2.24458,-4.494781 0,-4.254736 0.17561,-4.522773 3.28827,-5.01894 1.80854,-0.288289 4.42173,-1.485779 5.80708,-2.661089 1.38536,-1.175312 3.56712,-2.139475 4.84835,-2.142586 4.17124,-0.01013 6.25755,-4.532565 6.25755,-13.564331 0,-7.223262 0.25581,-8.223207 2.46921,-9.651694 2.15613,-1.39154 2.26286,-1.757294 0.84172,-2.884769 -0.89512,-0.71015 -2.55063,-1.70117 -3.67891,-2.202267 -1.74112,-0.77328 -1.52225,-0.911086 1.44703,-0.911086 1.92413,0 2.97086,0.259869 2.32606,0.577486 -0.64479,0.317617 0.7148,1.294737 3.02132,2.171376 3.83686,1.458275 4.02378,1.692895 2.19709,2.757483 -1.57939,0.920453 -2.11088,2.870372 -2.54353,9.331795 -0.30083,4.492513 -1.06745,9.264345 -1.70359,10.604071 -1.22278,2.575158 -8.09482,8.250011 -9.99046,8.250011 -0.61583,0 -1.11969,0.603776 -1.11969,1.341725 0,0.73795 -0.50503,1.341726 -1.12229,1.341726 -0.61726,0 -1.1223,1.610071 -1.1223,3.577935 0,3.297853 -0.24159,3.58085 -3.0863,3.61517 l -3.0863,0.03724 4.46221,3.139364 c 3.42017,2.406247 4.1026,3.316499 2.9223,3.897893 -1.21996,0.600937 -0.9229,1.250285 1.42982,3.125447 3.44964,2.749403 3.7716,4.062953 1.00572,4.103015 -1.75444,0.02541 -1.77718,0.14472 -0.21311,1.118105 6.94335,4.32114 8.23374,5.390692 6.94686,5.757992 -0.77157,0.220224 -1.40286,1.794982 -1.40286,3.499464 0,2.269673 0.82393,3.663914 3.07868,5.209689 3.02391,2.073091 3.07222,2.267194 2.71583,10.914518 -0.19955,4.84214 -0.82742,8.93806 -1.39523,9.10205 -1.4041,0.4055 -1.3192,7.30495 0.0899,7.30495 0.61726,0 1.1299,1.7107 1.1392,3.80156 0.009,2.09085 0.74467,5.41162 1.63416,7.37949 2.14221,4.73923 2.46072,45.11441 0.36906,46.7815 -1.04747,0.83485 -0.8128,1.07338 1.05605,1.07338 1.32155,0 2.71494,0.40252 3.09643,0.89448 0.42416,0.547 -1.31976,0.89448 -4.48917,0.89448 -3.3873,0 -4.92632,-0.33073 -4.44248,-0.95469 z m -36.521159,-14.3571 c 0,-0.49197 -0.505031,-0.64572 -1.122291,-0.34167 -0.617261,0.30405 -1.122292,0.95533 -1.122292,1.4473 0,0.49197 0.505031,0.64572 1.122292,0.34167 0.61726,-0.30406 1.122291,-0.95534 1.122291,-1.4473 z m -11.578553,-13.4794 c -0.358265,-0.71356 -0.6242,-0.50161 -0.678052,0.54042 -0.04873,0.94293 0.216522,1.47124 0.58945,1.17401 0.372927,-0.29724 0.412799,-1.06873 0.08861,-1.71443 z m 2.221202,-2.73936 c -0.311338,-0.61496 -0.566068,-0.11181 -0.566068,1.11811 0,1.22991 0.25473,1.73306 0.566068,1.1181 0.311337,-0.61496 0.311337,-1.62125 0,-2.23621 z m -2.169518,-0.3168 c -0.372928,-0.29722 -1.340904,-0.329 -2.151059,-0.0706 -0.895289,0.28554 -0.629354,0.49749 0.678052,0.54041 1.183081,0.0388 1.845935,-0.17257 1.473007,-0.4698 z m -6.785434,-8.57213 c -0.358264,-0.71356 -0.624199,-0.50161 -0.678051,0.54042 -0.04873,0.94293 0.216521,1.47124 0.58945,1.17401 0.372927,-0.29724 0.412799,-1.06873 0.08861,-1.71443 z m -4.512546,-10.78971 c -0.311339,-0.61496 -0.566068,-0.11181 -0.566068,1.1181 0,1.22992 0.254729,1.73307 0.566068,1.11811 0.311337,-0.61496 0.311337,-1.62125 0,-2.23621 z m 4.717878,-1.44826 c -0.225962,-0.5242 -1.048863,0.13167 -1.828669,1.45748 -1.310338,2.22782 -1.279191,2.30008 0.410839,0.95309 1.005768,-0.80161 1.643792,-1.88637 1.41783,-2.41057 z M 61.722565,108.44572 c -0.358265,-0.71356 -0.6242,-0.50161 -0.678052,0.54042 -0.04873,0.94293 0.216522,1.47124 0.58945,1.17401 0.372928,-0.29724 0.412799,-1.06873 0.08861,-1.71443 z m 1.47793,-23.536106 c 0,-0.737949 -0.505031,-1.341726 -1.122292,-1.341726 -0.61726,0 -1.122291,0.603777 -1.122291,1.341726 0,0.737949 0.505031,1.341725 1.122291,1.341725 0.617261,0 1.122292,-0.603776 1.122292,-1.341725 z m 39.719355,-14.24258 c -1.0187,-2.115815 -3.806027,-2.473442 -3.806027,-0.488329 0,1.155214 0.759935,1.760894 2.209357,1.760894 1.44943,0 1.99862,-0.437714 1.59667,-1.272565 z M 70.401734,63.313978 c 1.03105,-2.141479 0.227383,-2.305929 -1.361203,-0.278537 -0.75344,0.961558 -0.914612,1.748288 -0.358162,1.748288 0.556451,0 1.330166,-0.661388 1.719365,-1.469751 z M 111.56679,181.03595 c -3.33566,-0.38608 -6.87088,-0.49915 -7.85604,-0.25126 -1.44417,0.36337 -1.48991,0.27961 -0.23607,-0.43235 1.77913,-1.01022 14.73784,-0.35589 16.34542,0.82535 1.20614,0.88625 0.52764,0.87459 -8.25331,-0.14174 z M 74.931662,53.725468 c 1.263613,-0.9164 2.297477,-1.989781 2.297477,-2.38529 0,-0.39551 0.459742,-1.054539 1.02165,-1.464512 0.593574,-0.433076 0.683383,-0.276912 0.214338,0.372702 -0.499293,0.691508 -0.139748,1.118105 0.942361,1.118105 2.334896,0 2.207342,0.590389 -0.636156,2.944473 -1.705327,1.411814 -2.536722,1.645627 -2.914867,0.819749 -0.307189,-0.67091 -1.093739,-0.85846 -1.87566,-0.447242 -0.74064,0.389508 -0.312754,-0.04158 0.950857,-0.957985 z m 7.347789,-5.087656 c 0,-0.52517 -0.505032,-0.706084 -1.122292,-0.402032 -0.61726,0.304052 -1.122291,0.357288 -1.122291,0.118303 0,-0.238985 1.430921,-1.003458 3.179825,-1.698828 3.679371,-1.462932 4.634376,0.165163 1.122292,1.913283 -1.404133,0.6989 -2.057534,0.720899 -2.057534,0.06927 z m 5.649358,-3.532725 c -0.122361,-0.245984 -0.437205,-1.654795 -0.699656,-3.130694 -0.395315,-2.223075 -0.27026,-2.410077 0.728933,-1.090001 0.663363,0.876399 0.978208,2.285211 0.699656,3.130694 -0.278553,0.845484 -0.606573,1.335984 -0.728933,1.090001 z M 89.14885,30.793346 c -0.136003,-1.788784 -0.387695,-1.967754 -1.257942,-0.894483 -0.598356,0.737949 -1.08792,0.939208 -1.08792,0.447242 0,-1.242156 2.153519,-3.785774 2.271906,-2.683452 0.05284,0.491966 0.467656,0.140765 0.921821,-0.780447 0.777775,-1.577612 0.936812,-1.586416 2.737164,-0.151507 2.119408,1.689201 1.569572,3.357024 -0.861591,2.613468 -0.991095,-0.30312 -1.7393,0.280802 -2.055806,1.604413 -0.488988,2.044918 -0.500557,2.042229 -0.667632,-0.155234 z m -3.136125,-4.837723 c 0.411313,-0.854293 0.161939,-2.429765 -0.554166,-3.50105 -1.176598,-1.760178 -1.122161,-1.829544 0.56517,-0.72016 2.162389,1.421724 2.461375,4.188244 0.554167,5.127702 -0.893844,0.440292 -1.07427,0.150902 -0.565171,-0.906492 z m 26.007455,-5.024187 c -1.7679,-0.623278 -1.3662,-0.76189 1.89149,-0.652686 2.27484,0.07625 3.88639,0.460648 3.58121,0.854204 -0.69239,0.892917 -2.56386,0.824005 -5.4727,-0.201518 z m -10.35984,-1.491764 c 1.09195,-0.22679 2.60704,-0.211875 3.36687,0.03314 0.75983,0.245023 -0.13359,0.430579 -1.98537,0.41235 -1.85178,-0.01823 -2.47346,-0.2187 -1.3815,-0.445491 z M 81.157159,18.366274 c 0,-0.439331 0.789557,-1.040265 1.75457,-1.335408 0.965014,-0.295144 1.46764,-0.90665 1.116946,-1.358903 -0.788178,-1.016435 2.344232,-0.724444 3.549177,0.330839 0.480811,0.421091 0.238642,0.473969 -0.538156,0.117505 -0.851693,-0.390834 -1.742725,-0.0039 -2.244583,0.974696 -0.868106,1.69278 -3.637954,2.660693 -3.637954,1.271271 z M 127.43156,17.37609 c 0.77097,-0.983932 2.41661,-1.75719 3.65697,-1.718351 1.24035,0.03884 1.6239,0.273642 0.85232,0.521783 -0.77158,0.248141 -1.40286,1.021399 -1.40286,1.71835 0,0.696952 -1.01434,1.267186 -2.25409,1.267186 -1.97316,0 -2.0794,-0.222968 -0.85234,-1.788968 z m -38.41836,0 c 0,-0.491966 0.534837,-0.894484 1.188525,-0.894484 0.653689,0 0.8764,0.402518 0.494912,0.894484 -0.381488,0.491966 -0.916324,0.894484 -1.188526,0.894484 -0.272202,0 -0.494911,-0.402518 -0.494911,-0.894484 z m 79.38342,-1.899962 c 0.76129,-0.611306 1.66687,-0.886139 2.01241,-0.610739 0.34554,0.2754 -0.27733,0.77556 -1.38416,1.111466 -1.59949,0.485423 -1.72839,0.382679 -0.62825,-0.500727 z m -34.14035,-0.462583 c -2.58556,-0.839217 2.17836,-3.898841 6.07061,-3.898841 2.02324,0 3.6786,-0.402518 3.6786,-0.894484 0,-1.1185575 13.20243,-1.0725786 16.27323,0.05668 1.6829,0.618865 0.93738,0.77101 -2.97918,0.607993 -2.87306,-0.119584 -4.98965,0.08447 -4.7035,0.453438 0.28614,0.368974 -2.00491,0.670862 -5.09121,0.670862 -3.0863,0 -5.92358,0.402518 -6.30506,0.894484 -0.38149,0.491966 -2.05265,0.922775 -3.71369,0.957353 -2.69666,0.05614 -2.7797,0.145189 -0.77548,0.831615 2.36459,0.809845 0.003,1.118587 -2.45432,0.320906 z m 36.68421,-1.21539 c -2.6379,-0.673321 -2.58359,-0.721492 0.90796,-0.805322 2.2136,-0.05315 3.4335,0.272148 3.02006,0.805322 -0.38149,0.491966 -0.79007,0.854361 -0.90796,0.805322 -0.11788,-0.04904 -1.47691,-0.411434 -3.02006,-0.805322 z"
         id="path230" />
      <path
         style="fill:#cacacc;stroke-width:1.00193"
         d="m 114.26476,181.9611 c -0.38149,-0.49196 0.12354,-0.89448 1.12229,-0.89448 0.99875,0 1.50378,0.40252 1.12229,0.89448 -0.38149,0.49197 -0.88652,0.89448 -1.12229,0.89448 -0.23577,0 -0.7408,-0.40251 -1.12229,-0.89448 z m -9.91285,-1.44486 c -1.7485,-0.75527 -3.92111,-1.14629 -4.828026,-0.86891 -0.982235,0.3004 -1.353043,0.12273 -0.917112,-0.43944 0.402501,-0.51906 -0.202558,-1.50795 -1.344575,-2.19751 -2.017226,-1.21804 -2.016431,-1.25458 0.0279,-1.28222 1.754209,-0.0237 1.987601,-0.49349 1.402865,-2.82371 -0.385786,-1.53739 -0.70143,-3.9525 -0.70143,-5.3669 0,-1.68958 -0.577411,-2.57164 -1.683437,-2.57164 -1.215816,0 -1.683438,-0.99387 -1.683438,-3.57794 0,-3.24812 -0.266445,-3.57793 -2.890494,-3.57793 -2.713895,0 -2.871938,-0.24048 -2.586798,-3.9361 0.272613,-3.53324 -0.09203,-4.19551 -3.562682,-6.47061 -5.500505,-3.60574 -5.513661,-3.63256 -5.53263,-11.28452 -0.01378,-5.55959 -0.350524,-6.93225 -1.700623,-6.93225 -1.215815,0 -1.683437,-0.99387 -1.683437,-3.57794 0,-2.94631 -0.384852,-3.57793 -2.180054,-3.57793 -1.762441,0 -2.246162,-0.72823 -2.525155,-3.80156 -0.276346,-3.04415 -0.736406,-3.74919 -2.309113,-3.53872 -1.81613,0.24304 -1.96401,-1.08712 -1.96401,-17.666051 0,-17.332567 0.07466,-17.92889 2.244583,-17.92889 1.870486,0 2.244583,-0.596323 2.244583,-3.577935 v -3.577935 h 6.733749 6.733749 v -3.577935 -3.577935 h 6.172603 6.172604 v 3.503751 c 0,3.028548 0.646906,3.933633 4.769738,6.673338 3.47273,2.307699 4.8682,2.81523 5.13181,1.866443 0.57129,-2.056172 4.68324,0.14524 4.7132,2.523301 0.0137,1.089614 1.01256,2.987411 2.21962,4.217326 2.68757,2.738426 2.80155,4.752365 0.43208,7.63458 -1.66849,2.029548 -1.66849,2.204741 0,2.204741 0.99688,0 1.81251,0.708208 1.81251,1.5738 0,0.865592 1.01006,2.076562 2.24458,2.691036 1.23452,0.614475 2.24458,1.516329 2.24458,2.004127 0,0.487798 -1.01006,0.886908 -2.24458,0.886908 -1.87049,0 -2.24458,0.59632 -2.24458,3.57793 0,2.40423 0.49613,3.57794 1.5124,3.57794 1.15,0 1.69226,2.73272 2.26304,11.40467 0.6148,9.34087 1.15349,11.84325 2.97677,13.82828 1.97474,2.14992 2.22612,3.8699 2.22612,15.23105 0,12.16312 -0.12703,12.89613 -2.52516,14.57037 l -2.52515,1.76294 2.52515,0.28703 c 3.50578,0.39851 3.15872,1.09936 -2.07242,4.18485 -4.31767,2.54671 -4.41438,2.70476 -1.93748,3.16634 2.14108,0.399 2.66872,1.15892 2.95214,4.25174 0.22705,2.47766 0.87624,3.76591 1.89778,3.76591 0.85397,0 1.88697,0.43112 2.29555,0.95802 0.48611,0.62689 -0.55775,0.85877 -3.02006,0.67087 -2.06963,-0.15793 -3.67825,-0.69095 -3.57472,-1.18446 0.10965,-0.52278 -3.16932,-0.94042 -7.85605,-1.0006 -4.42434,-0.0568 -7.16046,0.0746 -6.08025,0.29203 1.0802,0.21742 1.96401,0.76832 1.96401,1.22421 0,1.02722 0.10308,1.04419 -3.74025,-0.61596 z m 12.71858,-16.79636 c 0,-2.66771 0.54055,-4.0948 1.68343,-4.44434 1.15369,-0.35284 1.68344,-1.79039 1.68344,-4.56812 0,-3.00657 -0.43472,-4.05325 -1.68344,-4.05325 -1.20984,0 -1.68343,-0.98559 -1.68343,-3.5034 0,-1.92686 0.42758,-3.63756 0.95019,-3.80155 0.5226,-0.16399 1.25181,-2.38083 1.62047,-4.92633 0.49967,-3.45008 0.2578,-4.901 -0.95019,-5.70004 -1.04482,-0.69112 -1.62047,-2.78064 -1.62047,-5.88202 0,-2.64558 -0.50503,-4.81014 -1.12229,-4.81014 -0.65467,0 -1.1223,-2.98161 -1.1223,-7.15587 0,-4.29259 -0.46048,-7.15587 -1.15084,-7.15587 -0.66821,0 -1.06803,-2.01974 -0.95337,-4.81613 0.15281,-3.727246 -0.37191,-5.453439 -2.32082,-7.63487 -2.47737,-2.772926 -2.46703,-3.597998 0.0802,-6.400968 1.05647,-1.162515 0.0816,-2.377376 -5.56275,-6.932249 -5.822074,-4.698286 -7.436277,-5.522715 -10.813283,-5.522715 -2.399758,0 -3.990137,0.44217 -4.021553,1.118105 -0.02858,0.614957 -2.025321,2.325657 -4.437199,3.801556 -4.525983,2.769582 -5.752194,4.91966 -2.805729,4.91966 1.215816,0 1.683438,0.993871 1.683438,3.577935 0,2.584065 -0.467622,3.577935 -1.683438,3.577935 -1.215815,0 -1.683437,0.99387 -1.683437,3.577935 0,2.584066 0.467622,3.577936 1.683437,3.577936 1.215816,0 1.683438,0.99387 1.683438,3.57793 0,2.58407 0.467621,3.57794 1.683437,3.57794 1.426245,0 1.683437,2.18651 1.683437,14.31174 v 14.31174 h 2.805729 c 2.525156,0 2.805729,0.35779 2.805729,3.57793 0,2.58407 -0.467622,3.57794 -1.683438,3.57794 -2.678954,0 -1.972006,1.60495 1.964011,4.4588 l 3.647447,2.64463 -2.805729,0.0524 -2.805729,0.0524 3.647448,2.64462 c 2.006096,1.45454 3.647447,3.05281 3.647447,3.55171 0,0.4989 1.515097,0.90709 3.366877,0.90709 3.17982,0 3.36687,0.19878 3.36687,3.57794 0,1.96786 0.50503,3.57793 1.12229,3.57793 0.61726,0 1.1223,0.60378 1.1223,1.34173 0,0.96902 1.24699,1.34172 4.48916,1.34172 h 4.48917 V 163.7198 Z M 99.113823,149.20292 c 0,-1.18859 0.304694,-1.24971 1.683437,-0.33772 0.92589,0.61245 1.68344,1.26551 1.68344,1.45125 0,0.18575 -0.75755,0.33772 -1.68344,0.33772 -0.92589,0 -1.683437,-0.65306 -1.683437,-1.45125 z m 15.665337,-11.56366 c -1.19275,-1.14545 -1.11906,-1.6455 0.42372,-2.87512 1.74194,-1.38836 1.86761,-1.29506 1.86761,1.38661 0,3.26115 -0.26574,3.43378 -2.29133,1.48851 z M 90.135491,80.437195 c 0,-0.969024 1.246991,-1.341726 4.489166,-1.341726 3.242176,0 4.489166,0.372702 4.489166,1.341726 0,0.969024 -1.24699,1.341725 -4.489166,1.341725 -3.242175,0 -4.489166,-0.372701 -4.489166,-1.341725 z M 87.37769,174.86704 c -0.355128,-0.45798 -0.05439,-1.12395 0.668315,-1.47993 0.783186,-0.38578 1.014442,-0.26094 0.57246,0.30903 -0.407849,0.52597 -0.107111,1.16016 0.668315,1.40932 1.009099,0.32425 1.029914,0.4731 0.07323,0.52364 -0.735147,0.0388 -1.627189,-0.30409 -1.982317,-0.76206 z m 6.685822,-1.85078 c -0.877837,-1.13206 0.607864,-1.13206 2.805728,0 1.450772,0.74726 1.421149,0.86899 -0.214338,0.88079 -1.043777,0.008 -2.209902,-0.38882 -2.59139,-0.88079 z m -9.625346,-1.56534 c -0.04723,-0.36898 -0.255409,-1.37719 -0.462625,-2.24047 -0.207218,-0.86328 0.02297,-1.37271 0.511545,-1.13205 1.338597,0.65937 2.220861,4.04338 1.05417,4.04338 -0.559472,0 -1.055863,-0.30189 -1.10309,-0.67086 z m -9.266561,-16.92066 c -0.411508,-0.32797 -0.748195,-1.01225 -0.748195,-1.52062 0,-0.56048 0.522731,-0.50767 1.328045,0.13417 0.730425,0.58217 1.067112,1.26645 0.748194,1.52063 -0.318918,0.25418 -0.916538,0.1938 -1.328044,-0.13418 z m 5.040467,-2.08712 c 0,-1.22992 0.25473,-1.73307 0.566068,-1.11811 0.311337,0.61496 0.311337,1.62125 0,2.23621 -0.311338,0.61496 -0.566068,0.11181 -0.566068,-1.1181 z m -9.066935,-21.98939 c 0.05385,-1.04203 0.319787,-1.25398 0.678051,-0.54042 0.324198,0.6457 0.284326,1.41719 -0.0886,1.71443 -0.372929,0.29723 -0.638181,-0.23108 -0.589451,-1.17401 z m -9.62808,-7.52858 c -0.426108,-1.54626 -0.522225,-3.01263 -0.213595,-3.25861 0.30863,-0.24598 0.909779,0.81787 1.335887,2.36413 0.426108,1.54626 0.522226,3.01263 0.213596,3.25861 -0.308631,0.24599 -0.909779,-0.81787 -1.335888,-2.36413 z m -0.472544,-13.93903 c 0.05385,-1.04203 0.319787,-1.25398 0.678052,-0.54042 0.324197,0.6457 0.284326,1.41719 -0.08861,1.71443 -0.372929,0.29723 -0.638181,-0.23108 -0.58945,-1.17401 z m -2.15598,-3.05616 c 0,-1.22991 0.25473,-1.73306 0.566068,-1.1181 0.311337,0.61495 0.311337,1.62125 0,2.23621 -0.311338,0.61495 -0.566068,0.11181 -0.566068,-1.11811 z M 56.466746,95.196177 c 0,-0.983932 0.505031,-1.788968 1.122291,-1.788968 0.61726,0 1.122292,0.805036 1.122292,1.788968 0,0.983932 -0.505032,1.788967 -1.122292,1.788967 -0.61726,0 -1.122291,-0.805035 -1.122291,-1.788967 z m 0.792542,-12.569262 c 0.351215,-2.188278 0.821604,-4.146403 1.045308,-4.35139 0.915657,-0.839043 0.293116,5.839439 -0.65576,7.034842 -0.665129,0.837935 -0.802665,-0.109496 -0.389548,-2.683452 z m 4.907517,2.208159 c 0.05385,-1.042023 0.319787,-1.253977 0.678051,-0.540418 0.324198,0.645706 0.284326,1.417198 -0.08861,1.714428 -0.372928,0.297228 -0.638181,-0.231076 -0.58945,-1.17401 z m -1.58499,-5.441444 c -0.411507,-0.327977 -0.716183,-1.4349 -0.677057,-2.45983 0.06541,-1.713465 0.157714,-1.691006 1.146401,0.278946 1.099074,2.189893 0.871094,3.249235 -0.469344,2.180884 z m 38.532008,-9.214925 c 0,-1.155214 0.549191,-1.592928 1.596667,-1.272565 2.65467,0.811914 3.10338,3.033459 0.61269,3.033459 -1.449422,0 -2.209357,-0.60568 -2.209357,-1.760894 z M 69.040531,63.035441 c 0.75344,-0.961558 1.527153,-1.622946 1.719365,-1.469751 0.665261,0.530224 -1.06996,3.218039 -2.077527,3.218039 -0.55645,0 -0.395278,-0.78673 0.358162,-1.748288 z m 30.073292,0.853804 c 0,-0.491966 -2.075378,-0.894483 -4.611951,-0.894483 -4.57042,0 -4.608,-0.02698 -4.173127,-2.995866 0.374044,-2.553606 0.133271,-2.932181 -1.630993,-2.564465 -1.280684,0.266925 -2.709089,-0.296023 -3.746553,-1.476553 -2.033861,-2.31433 -2.74494,-2.358253 -5.54643,-0.342607 -2.418249,1.739908 -7.225942,2.594105 -7.225942,1.283855 0,-0.462651 0.708434,-1.309789 1.574299,-1.882527 1.209167,-0.799821 1.697001,-0.773358 2.103339,0.114096 0.722584,1.578145 5.306673,-2.237382 5.283508,-4.397684 -0.0097,-0.899945 -0.378742,-1.210518 -0.841718,-0.708264 -0.453494,0.491966 -1.834596,1.48608 -3.069116,2.209142 -1.625242,0.951907 -1.48527,0.636118 0.507279,-1.144468 1.513523,-1.35252 3.345849,-2.277459 4.071836,-2.05542 0.725986,0.222038 1.960637,-0.06799 2.743667,-0.6445 1.089304,-0.802008 1.248925,-0.800108 0.679597,0.0081 -0.409253,0.580963 -0.230828,1.309124 0.3965,1.618136 1.176457,0.579544 1.426472,-0.171448 1.337032,-4.016118 -0.04225,-1.816254 0.06418,-1.900246 0.566747,-0.447242 0.340324,0.983933 1.191635,2.090856 1.891804,2.459831 0.902286,0.475485 0.782763,0.927377 -0.410401,1.551649 -1.291683,0.675818 -0.8558,0.883975 1.873059,0.894484 1.956075,0.0075 5.049547,0.696653 6.874383,1.531377 3.120188,1.427251 3.491048,1.427251 6.224068,0 1.5984,-0.834724 4.69156,-1.51768 6.87369,-1.51768 2.18213,0 3.9675,-0.375393 3.9675,-0.834206 0,-0.458814 0.95575,-1.075976 2.12389,-1.371471 3.8011,-0.961536 5.03132,-5.144046 3.86356,-13.135305 -1.03005,-7.04893 -0.99374,-7.242687 1.52903,-8.158818 3.30813,-1.201328 3.25876,-1.908092 -0.22158,-3.171958 -2.45125,-0.890159 -3.94313,-2.846206 -2.1708,-2.846206 1.14627,0 5.45774,2.044719 7.142,3.387102 1.45267,1.157801 1.35449,1.506727 -0.81855,2.909181 -2.2134,1.428487 -2.46921,2.428432 -2.46921,9.651694 0,9.031766 -2.08631,13.554205 -6.25755,13.564331 -1.28123,0.0031 -3.46299,0.967274 -4.84835,2.142586 -1.38535,1.17531 -3.99854,2.3728 -5.80708,2.661089 -3.11266,0.496167 -3.28827,0.764204 -3.28827,5.01894 0,3.898458 -0.29779,4.494781 -2.24458,4.494781 -1.23452,0 -2.244587,-0.402518 -2.244587,-0.894484 z M 66.078379,62.732563 c 0.421455,-0.882158 1.048997,-1.378597 1.394536,-1.103196 0.345539,0.2754 7.11e-4,0.997165 -0.766283,1.603924 -1.108393,0.876833 -1.237304,0.774089 -0.628253,-0.500728 z M 83.401742,45.99957 c 0,-0.491966 0.534837,-0.894483 1.188526,-0.894483 0.653689,0 0.8764,0.402517 0.494911,0.894483 -0.381488,0.491966 -0.916324,0.894484 -1.188525,0.894484 -0.272202,0 -0.494912,-0.402518 -0.494912,-0.894484 z M 89.06017,41.778811 C 87.908826,40.745105 87.808988,40.20719 88.723385,39.96426 89.63434,39.722245 89.704209,38.950544 88.956987,37.384138 88.370644,36.15498 87.94125,33.666067 88.002778,31.85322 88.103332,28.890564 88.205544,28.783348 89.0132,30.793346 l 0.898551,2.23621 0.11187,-2.108289 c 0.07786,-1.467413 0.612674,-1.95512 1.759366,-1.604412 2.505345,0.766244 3.106322,-0.868245 0.950892,-2.586156 -1.718454,-1.369635 -1.974435,-1.380222 -2.53574,-0.104871 -0.840756,1.910293 -2.848687,0.636672 -2.948541,-1.870247 -0.313447,-7.869418 -0.422916,-8.180169 -2.755541,-7.822132 -1.251008,0.192019 -2.006549,0.0035 -1.67898,-0.418932 0.327567,-0.422432 1.477377,-0.633447 2.555132,-0.468922 1.077754,0.164525 2.291046,0.329933 2.696203,0.367573 0.405159,0.03764 0.503648,0.778582 0.218866,1.646537 -0.284781,0.867954 0.02259,2.578654 0.683051,3.801556 1.153835,2.136432 1.186161,2.111524 0.825925,-0.636375 -0.206201,-1.572907 0.03874,-2.656076 0.544309,-2.40704 0.505571,0.249035 0.91922,1.032812 0.91922,1.741727 0,0.708915 0.679955,1.288936 1.51101,1.288936 0.831056,0 2.977439,0.53934 4.769739,1.198532 1.792301,0.659193 4.494338,1.595985 6.004518,2.081762 l 2.74579,0.88323 -3.58751,1.68903 c -3.007208,1.415821 -3.587507,2.224528 -3.587507,4.999568 0,1.820796 0.573837,3.462989 1.275197,3.64932 0.90901,0.2415 0.82844,0.964128 -0.28058,2.516507 -3.203094,4.48362 -7.91482,5.725642 -11.04827,2.912353 z m 1.462598,-6.104381 c -0.365513,-0.759167 -0.905266,-1.188465 -1.19945,-0.953995 -0.294184,0.234469 -0.201988,0.855606 0.20488,1.380303 1.106635,1.427114 1.753446,1.149868 0.99457,-0.426308 z M 85.085179,24.53196 c 0.381489,-0.491966 0.916324,-0.894484 1.188526,-0.894484 0.272202,0 0.494912,0.402518 0.494912,0.894484 0,0.491966 -0.534837,0.894484 -1.188526,0.894484 -0.653689,0 -0.8764,-0.402518 -0.494912,-0.894484 z M 96.86924,19.165058 c -2.61186,-0.666675 -2.635824,-0.722321 -0.346807,-0.805322 1.352407,-0.04904 2.771048,0.313356 3.152536,0.805322 0.381491,0.491966 0.537551,0.85436 0.346811,0.805321 -0.190747,-0.04904 -1.609389,-0.411434 -3.15254,-0.805321 z m 33.66875,-1.324684 c 0,-1.782211 5.16156,-2.715419 8.20809,-1.484017 2.20894,0.892847 2.06187,0.97086 -1.47434,0.782131 -2.64949,-0.141404 -3.8367,0.154293 -3.64745,0.908465 0.15431,0.614957 -0.47698,1.118105 -1.40287,1.118105 -0.92589,0 -1.68343,-0.596109 -1.68343,-1.324684 z m 14.37936,0.713649 c 0.81014,-0.25839 1.77812,-0.226612 2.15106,0.07062 0.37292,0.297229 -0.28993,0.50864 -1.47301,0.4698 -1.30741,-0.04292 -1.57334,-0.254875 -0.67805,-0.540417 z m 20.1311,-2.762734 c -1.08021,-0.184438 -1.96401,-0.708344 -1.96401,-1.164237 0,-0.455894 0.8838,-0.898372 1.96401,-0.983284 1.08021,-0.08491 -1.31869,-0.417956 -5.33088,-0.740097 l -7.2949,-0.585709 6.1726,-0.168085 c 4.57939,-0.1247 5.73809,-0.402437 4.48917,-1.076042 -2.02635,-1.0929117 4.03914,-0.166155 6.73375,1.02886 1.49638,0.663623 1.49638,0.75112 0,0.787473 -1.21907,0.02962 -1.30881,0.230654 -0.32534,0.728801 1.80906,0.916329 -1.7143,2.638467 -4.4444,2.17232 z m -28.33786,-1.09865 -2.24458,-0.768745 2.24458,-0.04917 c 1.23452,-0.02704 3.00213,0.341018 3.92802,0.817917 1.49638,0.770747 1.49638,0.861626 0,0.817918 -0.92589,-0.02705 -2.6935,-0.39511 -3.92802,-0.81792 z m 8.20676,0.283449 c 0.81014,-0.25839 1.77812,-0.226612 2.15106,0.07062 0.37292,0.297229 -0.28993,0.50864 -1.47301,0.4698 -1.30741,-0.04292 -1.57334,-0.254875 -0.67805,-0.540417 z m -3.71759,-2.072417 c 0.38148,-0.491966 1.16884,-0.894483 1.74967,-0.894483 0.58083,0 1.05605,0.402517 1.05605,0.894483 0,0.491966 -0.78735,0.894484 -1.74967,0.894484 -0.96232,0 -1.43754,-0.402518 -1.05605,-0.894484 z"
         id="path228" />
      <path
         style="fill:#c5c5c9;stroke-width:1.00193"
         d="m 118.48878,182.21372 c 1.70595,-0.2056 4.23111,-0.2001 5.61146,0.0122 1.38035,0.21231 -0.0155,0.38053 -3.10173,0.37382 -3.0863,-0.007 -4.21568,-0.18044 -2.50973,-0.38603 z m -8.9724,-0.87249 c 1.09195,-0.22678 2.60705,-0.21187 3.36687,0.0332 0.75983,0.24502 -0.13358,0.43058 -1.98537,0.41235 -1.85178,-0.0182 -2.47345,-0.21871 -1.3815,-0.44549 z m -9.49069,-1.78013 c 0.81015,-0.25839 1.77813,-0.22661 2.15105,0.0706 0.37293,0.29723 -0.28992,0.50864 -1.473,0.4698 -1.307409,-0.0429 -1.573344,-0.25488 -0.67805,-0.54041 z m 8.90818,0.0186 c 0.77158,-0.24814 2.03416,-0.24814 2.80573,0 0.77158,0.24814 0.14029,0.45117 -1.40286,0.45117 -1.54315,0 -2.17444,-0.20303 -1.40287,-0.45117 z m 9.04848,-0.0186 c 0.81015,-0.25839 1.77812,-0.22661 2.15106,0.0706 0.37293,0.29723 -0.28993,0.50864 -1.47301,0.4698 -1.30741,-0.0429 -1.57334,-0.25488 -0.67805,-0.54041 z m -31.213733,-6.09759 c -0.8053,-0.77337 -0.914374,-1.34173 -0.257492,-1.34173 0.626801,0 1.430336,0.60378 1.785633,1.34173 0.355298,0.73794 0.471169,1.34172 0.257492,1.34172 -0.213678,0 -1.017213,-0.60378 -1.785633,-1.34172 z m 21.323543,-7.15587 c 0,-0.73795 -0.50504,-1.34173 -1.1223,-1.34173 -0.61726,0 -1.12229,-1.61007 -1.12229,-3.57794 0,-3.37916 -0.18705,-3.57793 -3.36687,-3.57793 -1.85178,0 -3.366877,-0.40819 -3.366877,-0.9071 0,-0.49889 -1.641351,-2.09717 -3.647447,-3.5517 l -3.647448,-2.64463 2.805729,-0.0524 2.805729,-0.0524 -3.647447,-2.64462 c -3.936017,-2.85388 -4.642965,-4.45883 -1.964011,-4.45883 1.215816,0 1.683438,-0.99387 1.683438,-3.57794 0,-3.22014 -0.280573,-3.57793 -2.805729,-3.57793 h -2.805729 v -14.31174 c 0,-12.12523 -0.257192,-14.31174 -1.683437,-14.31174 -1.215816,0 -1.683437,-0.99387 -1.683437,-3.57794 0,-2.58406 -0.467622,-3.57793 -1.683438,-3.57793 -1.215815,0 -1.683437,-0.99387 -1.683437,-3.577936 0,-2.584065 0.467622,-3.577935 1.683437,-3.577935 1.215816,0 1.683438,-0.99387 1.683438,-3.577935 0,-2.584064 -0.467622,-3.577935 -1.683438,-3.577935 -2.946465,0 -1.720254,-2.150078 2.805729,-4.91966 2.411878,-1.475899 4.408617,-3.186599 4.437199,-3.801556 0.03141,-0.675935 1.621795,-1.118105 4.021553,-1.118105 3.377006,0 4.991209,0.824429 10.813283,5.522715 5.64436,4.554873 6.61922,5.769734 5.56275,6.932249 -2.54727,2.80297 -2.55761,3.628042 -0.0802,6.400968 1.94891,2.181431 2.47363,3.907624 2.32082,7.63487 -0.11465,2.79639 0.28516,4.81613 0.95338,4.81613 0.69035,0 1.15084,2.86328 1.15084,7.15587 0,4.17426 0.46762,7.15587 1.12229,7.15587 0.61726,0 1.12229,2.16456 1.12229,4.81014 0,3.10138 0.57566,5.1909 1.62048,5.88202 1.20799,0.79904 1.44985,2.24996 0.95019,5.70004 -0.36867,2.5455 -1.09787,4.76234 -1.62048,4.92633 -0.52261,0.16399 -0.95019,1.87469 -0.95019,3.80155 0,2.51781 0.4736,3.5034 1.68344,3.5034 1.24872,0 1.68344,1.04668 1.68344,4.05325 0,2.77773 -0.52976,4.21528 -1.68344,4.56812 -1.14289,0.34954 -1.68344,1.77663 -1.68344,4.44434 v 3.92948 h -4.48917 c -3.24217,0 -4.48916,-0.3727 -4.48916,-1.34172 z m -5.61146,-15.99119 c 0,-0.18574 -0.75755,-0.8388 -1.68344,-1.45125 -1.378743,-0.91199 -1.683437,-0.85087 -1.683437,0.33772 0,0.79819 0.757547,1.45125 1.683437,1.45125 0.92589,0 1.68344,-0.15197 1.68344,-0.33772 z m 14.58979,-14.1657 c 0,-2.68167 -0.12567,-2.77497 -1.86761,-1.38661 -1.54278,1.22962 -1.61647,1.72967 -0.42372,2.87512 2.02559,1.94527 2.29133,1.77264 2.29133,-1.48851 z M 99.113823,80.437195 c 0,-0.969024 -1.24699,-1.341726 -4.489166,-1.341726 -3.242175,0 -4.489166,0.372702 -4.489166,1.341726 0,0.969024 1.246991,1.341725 4.489166,1.341725 3.242176,0 4.489166,-0.372701 4.489166,-1.341725 z M 97.364317,51.842162 c -1.198183,-0.722303 -3.946123,-1.332243 -6.106534,-1.355422 -2.869901,-0.03079 -3.483296,-0.266308 -2.277085,-0.874296 0.908014,-0.457683 1.298992,-1.112655 0.86884,-1.455493 -0.430153,-0.342838 -1.564051,-0.106107 -2.519776,0.526071 -0.955724,0.632177 -2.050275,0.900269 -2.432335,0.595761 -0.382061,-0.304509 0.135174,-0.80745 1.149413,-1.117648 1.014237,-0.310198 1.844068,-1.148463 1.844068,-1.862813 0,-0.714348 0.525274,-1.040074 1.167275,-0.723835 0.751616,0.370232 0.949045,-0.32764 0.554433,-1.959799 -0.337064,-1.394128 -0.315221,-2.031631 0.04854,-1.416674 0.842318,1.423983 5.013971,1.39718 7.208084,-0.04631 2.820478,-1.855571 4.97929,-5.414 3.51978,-5.801751 -0.70136,-0.186331 -1.275197,-1.828524 -1.275197,-3.64932 0,-2.77504 0.580299,-3.583747 3.587507,-4.999568 l 3.58751,-1.68903 -2.74579,-0.88323 c -1.51018,-0.485777 -4.212217,-1.422569 -6.004518,-2.081762 -1.7923,-0.659192 -3.938683,-1.198532 -4.769739,-1.198532 -0.831055,0 -1.51101,-0.369597 -1.51101,-0.821327 0,-0.451728 -0.276945,-1.396536 -0.615431,-2.09957 -0.529231,-1.099206 0.296043,-1.115098 5.89203,-0.113466 15.775718,2.823716 18.323068,3.146935 20.487148,2.599505 1.35128,-0.341822 2.29354,-0.180052 2.29354,0.393757 0,0.535666 1.26258,1.432436 2.80573,1.992823 3.48034,1.263866 3.52971,1.97063 0.22158,3.171958 -2.52277,0.916131 -2.55908,1.109888 -1.52903,8.158818 1.16776,7.991259 -0.0625,12.173769 -3.86356,13.135305 -1.16814,0.295495 -2.12389,0.912657 -2.12389,1.371471 0,0.458813 -1.89386,0.847008 -4.20859,0.862653 -2.31472,0.01564 -5.18892,0.619423 -6.38711,1.341726 -1.19818,0.722304 -2.743,1.313278 -3.43294,1.313278 -0.68994,0 -2.234761,-0.590974 -3.432943,-1.313278 z M 85.321142,43.316119 c 0.322834,-0.983932 0.780585,-1.788968 1.017223,-1.788968 0.236638,0 0.430252,0.805036 0.430252,1.788968 0,0.983932 -0.457751,1.788968 -1.017223,1.788968 -0.559473,0 -0.753086,-0.805036 -0.430252,-1.788968 z m 2.586952,-4.994201 c 0.0095,-0.942935 0.529824,-2.318204 1.156383,-3.056153 0.831962,-0.979869 0.936086,-0.618013 0.38608,1.341726 -0.923053,3.288952 -1.565403,4.002917 -1.542463,1.714427 z M 84.194362,23.348455 c -0.419957,-0.872246 -0.17749,-1.499946 0.579397,-1.499946 0.726881,0 0.511341,-0.493684 -0.488162,-1.118105 -1.6235,-1.014252 -1.591303,-1.278035 0.346642,-2.839954 2.105708,-1.697132 2.135245,-1.68429 2.057497,0.894483 -0.04339,1.438984 -0.460102,3.391939 -0.92604,4.339901 -0.758023,1.542216 -0.923148,1.565744 -1.569334,0.223621 z m 4.514884,-2.040364 c -0.450086,-0.358724 -0.80298,-1.490805 -0.78421,-2.515735 0.03151,-1.720621 0.123653,-1.740899 1.201721,-0.264461 1.255402,1.719302 0.934286,3.8576 -0.417511,2.780196 z m 44.716064,-2.932295 c -0.87251,-1.125176 -0.37126,-1.245245 4.40757,-1.055793 2.6223,0.103959 2.99459,-0.06987 1.68344,-0.786005 -1.41237,-0.771426 -1.32202,-0.923893 0.56114,-0.946875 1.86183,-0.02272 1.95752,-0.175255 0.56115,-0.894484 -1.37173,-0.706541 -1.2332,-0.869626 0.7482,-0.880787 1.33739,-0.0075 2.59997,-0.389719 2.80573,-0.849301 0.20575,-0.459582 4.66685,-1.014747 9.91357,-1.233697 6.51033,-0.271685 7.75762,-0.194661 3.92802,0.242564 l -5.61146,0.640658 7.2949,0.249559 c 4.01219,0.137258 6.41109,0.433639 5.33088,0.658627 -1.08021,0.224987 -1.96401,0.752557 -1.96401,1.172377 0,0.419819 0.8838,0.917161 1.96401,1.105202 2.6102,0.454382 -10.32902,2.227056 -21.73686,2.977948 -6.25252,0.411556 -9.3543,0.286061 -9.88628,-0.399993 z m 13.6431,-3.329091 c -0.37294,-0.297229 -1.34092,-0.329007 -2.15106,-0.07062 -0.89529,0.285543 -0.62936,0.497497 0.67805,0.540418 1.18308,0.03884 1.84593,-0.172571 1.47301,-0.469801 z m -64.788959,0.593207 c 0,-0.462932 0.499246,-1.087614 1.109436,-1.388183 0.636183,-0.313373 0.824331,0.04567 0.441073,0.841694 -0.746089,1.549619 -1.550509,1.833143 -1.550509,0.546489 z"
         id="path226" />
    </g>
  </g>
</svg>
