{
   "accessors" : [
      {
         "bufferView" : 2,
         "byteOffset" : 0,
         "componentType" : 5126,
         "count" : 17924,
         "max" : [ 1, 1, 1, 1 ],
         "min" : [ 0.006584956776350737, 0.006584956776350737, 0.006584956776350737, 1 ],
         "name" : "accessor_color_m0-PolyPaper23_-93292",
         "type" : "VEC4"
      },
      {
         "bufferView" : 2,
         "byteOffset" : 286784,
         "componentType" : 5126,
         "count" : 528,
         "max" : [ 1, 1, 1, 1 ],
         "min" : [ 1, 1, 1, 1 ],
         "name" : "accessor_color_m1-PolyGlass24_-93298",
         "type" : "VEC4"
      },
      {
         "bufferView" : 0,
         "byteOffset" : 0,
         "componentType" : 5123,
         "count" : 28386,
         "max" : [ 17923 ],
         "min" : [ 0 ],
         "name" : "accessor_indices_0_m0-PolyPaper23_-93292",
         "type" : "SCALAR"
      },
      {
         "bufferView" : 0,
         "byteOffset" : 56772,
         "componentType" : 5123,
         "count" : 774,
         "max" : [ 527 ],
         "min" : [ 0 ],
         "name" : "accessor_indices_0_m1-PolyGlass24_-93298",
         "type" : "SCALAR"
      },
      {
         "bufferView" : 1,
         "byteOffset" : 215088,
         "componentType" : 5126,
         "count" : 17924,
         "max" : [ 0.9999636, 1, 0.9999685 ],
         "min" : [ -0.9999642, -1, -0.9981204 ],
         "name" : "accessor_normal_m0-PolyPaper23_-93292",
         "type" : "VEC3"
      },
      {
         "bufferView" : 1,
         "byteOffset" : 436512,
         "componentType" : 5126,
         "count" : 528,
         "max" : [ 0.9764656, 1, 0.9770601 ],
         "min" : [ -0.9764657, -1, -0.9770603 ],
         "name" : "accessor_normal_m1-PolyGlass24_-93298",
         "type" : "VEC3"
      },
      {
         "bufferView" : 1,
         "byteOffset" : 0,
         "componentType" : 5126,
         "count" : 17924,
         "max" : [ 1.358267, 1.914073, 0.5192969 ],
         "min" : [ -0.4162623, -4.932598, -1.281809 ],
         "name" : "accessor_position_m0-PolyPaper23_-93292",
         "type" : "VEC3"
      },
      {
         "bufferView" : 1,
         "byteOffset" : 430176,
         "componentType" : 5126,
         "count" : 528,
         "max" : [ 1.339958, 1.830083, 0.4900644 ],
         "min" : [ -0.4000421, 0.9600826, -1.249936 ],
         "name" : "accessor_position_m1-PolyGlass24_-93298",
         "type" : "VEC3"
      }
   ],
   "asset" : {
      "copyright" : "Unknown",
      "extras" : {
         "GOOGLE_processor_version" : 294144208
      },
      "generator" : "glTF 1-to-2 Upgrader for Google Blocks",
      "version" : "2.0"
   },
   "bufferViews" : [
      {
         "buffer" : 0,
         "byteLength" : 58320,
         "byteOffset" : 0,
         "name" : "ushortBufferView",
         "target" : 34963
      },
      {
         "buffer" : 0,
         "byteLength" : 442848,
         "byteOffset" : 58320,
         "byteStride" : 12,
         "name" : "vec3BufferView",
         "target" : 34962
      },
      {
         "buffer" : 0,
         "byteLength" : 295232,
         "byteOffset" : 501168,
         "byteStride" : 16,
         "name" : "vec4BufferView",
         "target" : 34962
      }
   ],
   "buffers" : [
      {
         "byteLength" : 796400,
         "name" : "model",
         "uri" : "model.bin"
      }
   ],
   "cameras" : [
      {
         "perspective" : {
            "yfov" : 0.7853981633974483,
            "znear" : 0.1000000014901161
         },
         "type" : "perspective"
      }
   ],
   "extensions" : {
      "KHR_lights_punctual" : {
         "lights" : [
            {
               "color" : [ 1, 0.9333333333333333, 0.8666666666666667 ],
               "intensity" : 0.25,
               "name" : "headLight",
               "type" : "directional"
            },
            {
               "color" : [ 1, 0.9333333333333333, 0.8666666666666667 ],
               "intensity" : 0.324999988079071,
               "name" : "keyLight",
               "type" : "directional"
            }
         ]
      }
   },
   "extensionsUsed" : [ "GOOGLE_backgrounds", "GOOGLE_camera_settings", "KHR_lights_punctual" ],
   "extras" : {
      "GOOGLE_initial_camera_motion" : {
         "motionPath" : "FULL_ROTATION"
      },
      "GOOGLE_lighting_rig" : {
         "disableShadows" : false
      }
   },
   "materials" : [
      {
         "alphaMode" : "OPAQUE",
         "doubleSided" : false,
         "name" : "BlocksPaper",
         "pbrMetallicRoughness" : {
            "baseColorFactor" : [ 1, 1, 1, 1 ],
            "metallicFactor" : 0,
            "roughnessFactor" : 0.6
         }
      },
      {
         "alphaMode" : "BLEND",
         "doubleSided" : false,
         "name" : "BlocksGlass",
         "pbrMetallicRoughness" : {
            "baseColorFactor" : [ 0.2, 0.2, 1, 0.3 ],
            "metallicFactor" : 1,
            "roughnessFactor" : 0.4
         }
      },
      {
         "alphaMode" : "OPAQUE",
         "doubleSided" : true,
         "name" : "BlocksGem",
         "pbrMetallicRoughness" : {
            "baseColorFactor" : [ 1, 0.4, 1, 1 ],
            "metallicFactor" : 0,
            "roughnessFactor" : 0.1
         }
      }
   ],
   "meshes" : [
      {
         "name" : "mesh_m0-PolyPaper23_-93292",
         "primitives" : [
            {
               "attributes" : {
                  "COLOR_0" : 0,
                  "NORMAL" : 4,
                  "POSITION" : 6
               },
               "indices" : 2,
               "material" : 0,
               "mode" : 4
            }
         ]
      },
      {
         "name" : "mesh_m1-PolyGlass24_-93298",
         "primitives" : [
            {
               "attributes" : {
                  "COLOR_0" : 1,
                  "NORMAL" : 5,
                  "POSITION" : 7
               },
               "indices" : 3,
               "material" : 1,
               "mode" : 4
            }
         ]
      }
   ],
   "nodes" : [
      {
         "mesh" : 0,
         "name" : "node_MeshObject138858496-PolyPaper23"
      },
      {
         "mesh" : 1,
         "name" : "node_MeshObject710937600-PolyGlass24"
      },
      {
         "children" : [ 3 ]
      },
      {
         "children" : [ 4 ],
         "extras" : {
            "isTransformNode" : 1
         },
         "translation" : [ 0.4643892511809922, -0.8505870884739961, -0.358789676484801 ]
      },
      {
         "children" : [ 0, 1 ],
         "translation" : [ -0.4643892511809922, 0.8505870884739961, 0.358789676484801 ]
      },
      {
         "camera" : 0,
         "children" : [ 6 ],
         "rotation" : [
            -0.2219240542792781,
            -0.251895031853816,
            -0.05946428056213501,
            0.9400864887853888
         ],
         "translation" : [ -3.01946259017885, 2.634464275507908, 5.676061377743416 ]
      },
      {
         "extensions" : {
            "KHR_lights_punctual" : {
               "light" : 0
            }
         },
         "extras" : {
            "isHeadLight" : 1
         },
         "name" : "headLightNode",
         "translation" : [ -6.544098294861262, 3.272049147430631, 3.272049147430631 ]
      },
      {
         "extensions" : {
            "KHR_lights_punctual" : {
               "light" : 1
            }
         },
         "extras" : {
            "isKeyLight" : 1
         },
         "name" : "keyLightNode",
         "rotation" : [ -0.7505326882858236, -0.3752663441429118, 0, 0.5439447166468927 ],
         "scale" : [ 0, 0, 6.609539277809874 ],
         "translation" : [ -6.140611510103727, 14.22132168855974, -6.95168723958532 ]
      }
   ],
   "scene" : 0,
   "scenes" : [
      {
         "extensions" : {
            "GOOGLE_backgrounds" : {
               "color" : [ 0.9333333333333333, 0.9333333333333333, 0.9333333333333333 ]
            },
            "GOOGLE_camera_settings" : {
               "pivot" : [ 0, 0, 0 ]
            }
         },
         "extras" : {
            "GOOGLE_camera_index" : {
               "cameraIndex" : 0,
               "nodeIndex" : 5
            },
            "GOOGLE_geometry_data" : {
               "stats" : {
                  "centroid" : [ 0.4689277677061476, 1.002243132939986, -0.3421479617754454 ],
                  "radius" : 6.544098294861262,
                  "stdev" : 1.634843294747757
               },
               "visualCenterPoint" : [ 0.4643892511809922, -0.8505870884739961, -0.358789676484801 ]
            },
            "GOOGLE_hemi_light" : {
               "groundColor" : [ 0.9333333333333333, 0.9333333333333333, 0.9333333333333333 ]
            }
         },
         "name" : "defaultScene",
         "nodes" : [ 2, 5, 7 ]
      }
   ]
}
